<svg width="36" height="84" viewBox="0 0 36 84" fill="none" xmlns="http://www.w3.org/2000/svg">
<path d="M32.3426 43.1919C32.3434 43.1694 32.3438 43.1471 32.3438 43.125C32.3432 42.5616 32.1191 42.0215 31.7207 41.6231C31.3223 41.2247 30.7822 41.0006 30.2188 41V31.1719L32.1313 29.7375C32.1977 29.6877 32.2515 29.623 32.2884 29.5486C32.3253 29.4742 32.3443 29.3922 32.3438 29.3092C32.3433 29.2262 32.3233 29.1444 32.2855 29.0705C32.2476 28.9966 32.193 28.9326 32.126 28.8836L27.5626 25.5487V19.75C27.7034 19.75 27.8386 19.694 27.9382 19.5944C28.0378 19.4948 28.0938 19.3596 28.0938 19.2188V17.0938C28.0938 16.9529 28.0378 16.8177 27.9382 16.7181C27.8386 16.6185 27.7034 16.5625 27.5626 16.5625H22.2501C22.1092 16.5625 21.974 16.6185 21.8744 16.7181C21.7748 16.8177 21.7188 16.9529 21.7188 17.0938V19.2188C21.7188 19.3596 21.7748 19.4948 21.8744 19.5944C21.974 19.694 22.1092 19.75 22.2501 19.75V21.6666L18.3135 18.7898C18.2225 18.7233 18.1127 18.6875 18.0001 18.6875C17.8874 18.6875 17.7776 18.7233 17.6866 18.7898L3.87411 28.8836C3.80708 28.9326 3.75246 28.9966 3.71463 29.0705C3.67681 29.1444 3.65684 29.2262 3.65632 29.3092C3.65581 29.3922 3.67476 29.4742 3.71166 29.5486C3.74856 29.623 3.80238 29.6877 3.8688 29.7375L5.7813 31.1719V41C5.21791 41.0006 4.67778 41.2247 4.2794 41.6231C3.88102 42.0215 3.65693 42.5616 3.6563 43.125C3.6563 43.1471 3.6567 43.1694 3.6575 43.1919C3.15632 43.3208 2.71939 43.6281 2.42868 44.0562C2.13797 44.4843 2.01346 45.0038 2.07851 45.5171C2.14356 46.0305 2.3937 46.5025 2.782 46.8446C3.1703 47.1866 3.67008 47.3752 4.18755 47.375H31.8126C32.33 47.3752 32.8298 47.1866 33.2181 46.8446C33.6064 46.5025 33.8565 46.0305 33.9216 45.5171C33.9866 45.0038 33.8621 44.4843 33.5714 44.0562C33.2807 43.6281 32.8438 43.3208 32.3426 43.1919ZM22.7813 17.625H27.0313V18.6875H22.7813V17.625ZM23.3126 22.4062V19.75H26.5001V24.7723L23.2623 22.4062H23.3126ZM18.0001 19.8767L30.9197 29.3181L29.6827 30.2458L18.3126 21.9766C18.2218 21.9105 18.1123 21.875 18.0001 21.875C17.8878 21.875 17.7784 21.9105 17.6875 21.9766L6.3174 30.2458L5.08038 29.3181L18.0001 19.8767ZM3.12505 45.25C3.12535 44.971 3.2352 44.7034 3.43096 44.5046C3.62671 44.3059 3.8927 44.192 4.17161 44.1875H4.17288C4.20004 44.1913 4.2272 44.1945 4.25489 44.1963C4.34292 44.2019 4.43096 44.1854 4.51104 44.1485C4.59113 44.1115 4.66075 44.0551 4.71362 43.9845C4.76648 43.9139 4.80094 43.8313 4.81386 43.744C4.82679 43.6567 4.81779 43.5676 4.78767 43.4847C4.7437 43.3698 4.72039 43.248 4.7188 43.125C4.71914 42.8433 4.83119 42.5733 5.03037 42.3741C5.22956 42.1749 5.49961 42.0628 5.7813 42.0625V46.3125H4.18755C3.90586 46.3122 3.63581 46.2001 3.43662 46.0009C3.23743 45.8017 3.12539 45.5317 3.12505 45.25ZM25.9688 46.3125H19.5938V34.625H25.9688V46.3125ZM27.0313 46.3125V34.0938C27.0313 33.9529 26.9753 33.8177 26.8757 33.7181C26.7761 33.6185 26.6409 33.5625 26.5001 33.5625H19.0626C18.9217 33.5625 18.7865 33.6185 18.6869 33.7181C18.5873 33.8177 18.5313 33.9529 18.5313 34.0938V46.3125H6.8438V31.1768L18.0001 23.0631L29.1563 31.1768V46.3125H27.0313ZM31.8126 46.3125H30.2188V42.0625C30.5005 42.0628 30.7705 42.1749 30.9697 42.3741C31.1689 42.5733 31.281 42.8433 31.2813 43.125C31.2797 43.2481 31.2564 43.37 31.2124 43.485C31.1823 43.5679 31.1733 43.657 31.1862 43.7443C31.1992 43.8315 31.2336 43.9142 31.2865 43.9848C31.3394 44.0554 31.409 44.1117 31.4891 44.1487C31.5691 44.1857 31.6572 44.2022 31.7452 44.1966C31.7729 44.1948 31.8001 44.1916 31.8272 44.1878H31.8285C32.1103 44.1899 32.3797 44.3038 32.5775 44.5046C32.7752 44.7054 32.8851 44.9764 32.883 45.2582C32.8809 45.54 32.7669 45.8094 32.5662 46.0072C32.3654 46.205 32.0943 46.3149 31.8126 46.3128V46.3125Z" fill="#616161"/>
<path d="M15.875 33.5625H9.5C9.3591 33.5625 9.22398 33.6185 9.12435 33.7181C9.02472 33.8177 8.96875 33.9529 8.96875 34.0938V41.5312C8.96875 41.6721 9.02472 41.8073 9.12435 41.9069C9.22398 42.0065 9.3591 42.0625 9.5 42.0625H15.875C16.0159 42.0625 16.151 42.0065 16.2507 41.9069C16.3503 41.8073 16.4062 41.6721 16.4062 41.5312V34.0938C16.4062 33.9529 16.3503 33.8177 16.2507 33.7181C16.151 33.6185 16.0159 33.5625 15.875 33.5625ZM15.3438 37.2812H13.2188V34.625H15.3438V37.2812ZM12.1562 34.625V37.2812H10.0312V34.625H12.1562ZM10.0312 38.3438H12.1562V41H10.0312V38.3438ZM13.2188 41V38.3438H15.3438V41H13.2188Z" fill="#616161"/>
<path d="M21.6783 40.1409C21.7906 39.8698 21.6619 39.5591 21.3908 39.4468C21.1198 39.3345 20.809 39.4632 20.6967 39.7343C20.5844 40.0054 20.7132 40.3161 20.9842 40.4284C21.2553 40.5407 21.5661 40.412 21.6783 40.1409Z" fill="#616161"/>
<path d="M1.56 58.1C1.696 58.1 1.812 58.148 1.908 58.244C2.004 58.332 2.052 58.448 2.052 58.592V66.008C2.052 66.144 2 66.26 1.896 66.356C1.8 66.452 1.684 66.5 1.548 66.5C1.396 66.5 1.276 66.452 1.188 66.356C1.1 66.26 1.056 66.144 1.056 66.008V58.592C1.056 58.448 1.104 58.332 1.2 58.244C1.296 58.148 1.416 58.1 1.56 58.1ZM7.092 58.1C7.236 58.1 7.352 58.148 7.44 58.244C7.536 58.332 7.584 58.448 7.584 58.592V66.008C7.584 66.144 7.536 66.26 7.44 66.356C7.344 66.452 7.224 66.5 7.08 66.5C6.944 66.5 6.828 66.452 6.732 66.356C6.636 66.26 6.588 66.144 6.588 66.008V58.592C6.588 58.448 6.636 58.332 6.732 58.244C6.836 58.148 6.956 58.1 7.092 58.1ZM1.512 61.76H7.104L7.092 62.696H1.476L1.512 61.76ZM15.4167 63.38C15.4167 64.004 15.2767 64.56 14.9967 65.048C14.7247 65.536 14.3527 65.92 13.8807 66.2C13.4167 66.48 12.8927 66.62 12.3087 66.62C11.7247 66.62 11.1967 66.48 10.7247 66.2C10.2527 65.92 9.87672 65.536 9.59672 65.048C9.32472 64.56 9.18872 64.004 9.18872 63.38C9.18872 62.756 9.32472 62.2 9.59672 61.712C9.87672 61.224 10.2527 60.84 10.7247 60.56C11.1967 60.28 11.7247 60.14 12.3087 60.14C12.8927 60.14 13.4167 60.28 13.8807 60.56C14.3527 60.84 14.7247 61.224 14.9967 61.712C15.2767 62.2 15.4167 62.756 15.4167 63.38ZM14.4567 63.38C14.4567 62.916 14.3607 62.508 14.1687 62.156C13.9847 61.804 13.7287 61.528 13.4007 61.328C13.0807 61.128 12.7167 61.028 12.3087 61.028C11.9007 61.028 11.5327 61.128 11.2047 61.328C10.8847 61.528 10.6287 61.804 10.4367 62.156C10.2447 62.508 10.1487 62.916 10.1487 63.38C10.1487 63.836 10.2447 64.24 10.4367 64.592C10.6287 64.944 10.8847 65.224 11.2047 65.432C11.5327 65.632 11.9007 65.732 12.3087 65.732C12.7167 65.732 13.0807 65.632 13.4007 65.432C13.7287 65.224 13.9847 64.944 14.1687 64.592C14.3607 64.24 14.4567 63.836 14.4567 63.38ZM21.5047 60.296C21.6487 60.296 21.7647 60.344 21.8527 60.44C21.9407 60.528 21.9847 60.64 21.9847 60.776V64.052C21.9847 64.86 21.7567 65.488 21.3007 65.936C20.8527 66.376 20.2247 66.596 19.4167 66.596C18.6167 66.596 17.9887 66.376 17.5327 65.936C17.0847 65.488 16.8607 64.86 16.8607 64.052V60.776C16.8607 60.64 16.9047 60.528 16.9927 60.44C17.0887 60.344 17.2047 60.296 17.3407 60.296C17.4847 60.296 17.6007 60.344 17.6887 60.44C17.7767 60.528 17.8207 60.64 17.8207 60.776V64.052C17.8207 64.596 17.9607 65.008 18.2407 65.288C18.5207 65.568 18.9127 65.708 19.4167 65.708C19.9367 65.708 20.3327 65.568 20.6047 65.288C20.8847 65.008 21.0247 64.596 21.0247 64.052V60.776C21.0247 60.64 21.0687 60.528 21.1567 60.44C21.2527 60.344 21.3687 60.296 21.5047 60.296ZM23.415 65.516C23.343 65.412 23.311 65.304 23.319 65.192C23.327 65.072 23.395 64.968 23.523 64.88C23.603 64.824 23.695 64.8 23.799 64.808C23.911 64.816 24.011 64.868 24.099 64.964C24.323 65.228 24.579 65.44 24.867 65.6C25.155 65.752 25.507 65.828 25.923 65.828C26.115 65.82 26.307 65.788 26.499 65.732C26.691 65.676 26.851 65.58 26.979 65.444C27.115 65.3 27.183 65.112 27.183 64.88C27.183 64.656 27.115 64.48 26.979 64.352C26.843 64.216 26.667 64.108 26.451 64.028C26.235 63.94 25.999 63.864 25.743 63.8C25.479 63.728 25.219 63.648 24.963 63.56C24.707 63.464 24.475 63.348 24.267 63.212C24.067 63.068 23.903 62.892 23.775 62.684C23.655 62.468 23.595 62.208 23.595 61.904C23.595 61.544 23.691 61.232 23.883 60.968C24.083 60.704 24.347 60.5 24.675 60.356C25.011 60.212 25.375 60.14 25.767 60.14C25.991 60.14 26.223 60.168 26.463 60.224C26.711 60.272 26.951 60.36 27.183 60.488C27.415 60.608 27.619 60.776 27.795 60.992C27.867 61.072 27.907 61.172 27.915 61.292C27.923 61.412 27.871 61.52 27.759 61.616C27.671 61.68 27.571 61.708 27.459 61.7C27.355 61.692 27.267 61.652 27.195 61.58C27.027 61.38 26.815 61.228 26.559 61.124C26.311 61.012 26.035 60.956 25.731 60.956C25.539 60.956 25.351 60.984 25.167 61.04C24.983 61.096 24.827 61.192 24.699 61.328C24.579 61.456 24.519 61.636 24.519 61.868C24.527 62.084 24.599 62.26 24.735 62.396C24.871 62.532 25.055 62.644 25.287 62.732C25.519 62.812 25.775 62.892 26.055 62.972C26.311 63.036 26.555 63.112 26.787 63.2C27.027 63.28 27.243 63.388 27.435 63.524C27.627 63.66 27.779 63.836 27.891 64.052C28.003 64.26 28.059 64.524 28.059 64.844C28.059 65.212 27.955 65.532 27.747 65.804C27.539 66.068 27.263 66.272 26.919 66.416C26.583 66.552 26.219 66.62 25.827 66.62C25.387 66.62 24.951 66.536 24.519 66.368C24.095 66.2 23.727 65.916 23.415 65.516ZM32.3146 66.62C31.6746 66.62 31.1146 66.484 30.6346 66.212C30.1546 65.94 29.7786 65.568 29.5066 65.096C29.2426 64.616 29.1106 64.064 29.1106 63.44C29.1106 62.744 29.2466 62.152 29.5186 61.664C29.7986 61.168 30.1586 60.792 30.5986 60.536C31.0466 60.272 31.5186 60.14 32.0146 60.14C32.3826 60.14 32.7386 60.208 33.0826 60.344C33.4266 60.48 33.7306 60.68 33.9946 60.944C34.2586 61.2 34.4706 61.512 34.6306 61.88C34.7906 62.24 34.8746 62.644 34.8826 63.092C34.8826 63.22 34.8346 63.328 34.7386 63.416C34.6426 63.504 34.5306 63.548 34.4026 63.548H29.6626L29.4466 62.72H34.0666L33.8746 62.888V62.624C33.8426 62.296 33.7306 62.016 33.5386 61.784C33.3546 61.544 33.1266 61.36 32.8546 61.232C32.5906 61.104 32.3106 61.04 32.0146 61.04C31.7746 61.04 31.5346 61.084 31.2946 61.172C31.0626 61.252 30.8506 61.388 30.6586 61.58C30.4746 61.764 30.3226 62.004 30.2026 62.3C30.0906 62.596 30.0346 62.952 30.0346 63.368C30.0346 63.832 30.1266 64.24 30.3106 64.592C30.5026 64.944 30.7666 65.224 31.1026 65.432C31.4386 65.632 31.8306 65.732 32.2786 65.732C32.5586 65.732 32.8026 65.696 33.0106 65.624C33.2186 65.552 33.3986 65.464 33.5506 65.36C33.7026 65.248 33.8306 65.136 33.9346 65.024C34.0386 64.952 34.1386 64.916 34.2346 64.916C34.3546 64.916 34.4506 64.956 34.5226 65.036C34.6026 65.116 34.6426 65.212 34.6426 65.324C34.6426 65.46 34.5786 65.58 34.4506 65.684C34.2266 65.932 33.9226 66.152 33.5386 66.344C33.1546 66.528 32.7466 66.62 32.3146 66.62Z" fill="#616161"/>
</svg>
