<svg width="55" height="84" viewBox="0 0 55 84" fill="none" xmlns="http://www.w3.org/2000/svg">
<path d="M36.7483 37.8875H18.2875C18.0677 37.8875 17.8894 37.7092 17.8894 37.4895V25.537C17.8894 25.3172 18.0677 25.1389 18.2875 25.1389H36.749C36.9688 25.1389 37.1471 25.3172 37.1471 25.537V37.4895C37.1464 37.7092 36.9688 37.8875 36.7483 37.8875ZM18.6855 37.0914H36.351V25.935H18.6855V37.0914Z" fill="#616161"/>
<path d="M38.1443 25.9351H32.9309C32.81 25.9351 32.6953 25.8798 32.6199 25.7851L28.7023 20.8758C28.607 20.7563 28.5883 20.5925 28.6547 20.455C28.721 20.3175 28.8606 20.2297 29.0133 20.2297H33.6828C33.7947 20.2297 33.9019 20.2767 33.9772 20.3603L38.438 25.2703C38.5437 25.3871 38.5713 25.555 38.5071 25.6987C38.4442 25.8425 38.3018 25.9351 38.1443 25.9351ZM33.1223 25.139H37.2445L33.5066 21.0251H29.8398L33.1223 25.139ZM22.1048 25.9351H16.8915C16.7339 25.9351 16.5916 25.8425 16.5273 25.698C16.4637 25.5543 16.4907 25.3857 16.5964 25.2696L21.0579 20.3596C21.1332 20.2767 21.2403 20.229 21.3523 20.229H26.0217C26.1745 20.229 26.314 20.3168 26.3804 20.4543C26.4467 20.5918 26.4281 20.7556 26.3327 20.8751L22.4158 25.7851C22.3405 25.8805 22.2264 25.9351 22.1048 25.9351ZM17.7912 25.139H21.9134L25.1952 21.0251H21.5292L17.7912 25.139Z" fill="#616161"/>
<path d="M32.931 25.9349H22.1049C21.9522 25.9349 21.8126 25.8472 21.7463 25.7097C21.6799 25.5721 21.6986 25.4084 21.7939 25.2888L27.207 18.5047C27.2823 18.41 27.397 18.3547 27.518 18.3547C27.6389 18.3547 27.7536 18.41 27.8289 18.5047L33.242 25.2888C33.3373 25.4084 33.356 25.5721 33.2897 25.7097C33.2233 25.8479 33.0837 25.9349 32.931 25.9349ZM22.9321 25.1388H32.1038L27.518 19.3913L22.9321 25.1388Z" fill="#616161"/>
<path d="M27.518 24.5308C26.5913 24.5308 25.838 23.7769 25.838 22.8509C25.838 21.9242 26.592 21.1709 27.518 21.1709C28.4447 21.1709 29.1979 21.9248 29.1979 22.8509C29.1979 23.7769 28.4447 24.5308 27.518 24.5308ZM27.518 21.9663C27.0308 21.9663 26.6341 22.363 26.6341 22.8502C26.6341 23.3374 27.0308 23.734 27.518 23.734C28.0052 23.734 28.4018 23.3374 28.4018 22.8502C28.4018 22.363 28.0052 21.9663 27.518 21.9663Z" fill="#616161"/>
<path d="M38.1698 39.5294H16.8659C16.6462 39.5294 16.4679 39.3511 16.4679 39.1313V37.4894C16.4679 37.2696 16.6462 37.0913 16.8659 37.0913H38.1698C38.3896 37.0913 38.5679 37.2696 38.5679 37.4894V39.1313C38.5679 39.3511 38.3896 39.5294 38.1698 39.5294ZM17.264 38.7333H37.7711V37.8874H17.264V38.7333Z" fill="#616161"/>
<path d="M29.5268 37.8875H25.5083C25.2885 37.8875 25.1102 37.7092 25.1102 37.4895V32.0923C25.1102 31.319 25.7391 30.6895 26.5131 30.6895H28.5227C29.296 30.6895 29.9255 31.3183 29.9255 32.0923V37.4895C29.9248 37.7092 29.7472 37.8875 29.5268 37.8875ZM25.9063 37.0914H29.1287V32.0923C29.1287 31.7578 28.8564 31.4856 28.522 31.4856H26.5124C26.1779 31.4856 25.9056 31.7578 25.9056 32.0923V37.0914H25.9063Z" fill="#616161"/>
<path d="M23.7918 34.6421H19.6365C19.4167 34.6421 19.2384 34.4638 19.2384 34.2441V30.8807C19.2384 30.661 19.4167 30.4827 19.6365 30.4827H23.7918C24.0115 30.4827 24.1898 30.661 24.1898 30.8807V34.2441C24.1898 34.4638 24.0115 34.6421 23.7918 34.6421ZM20.0345 33.846H23.3937V31.2788H20.0345V33.846Z" fill="#616161"/>
<path d="M21.7145 34.6421C21.4947 34.6421 21.3164 34.4638 21.3164 34.2441V30.8807C21.3164 30.661 21.4947 30.4827 21.7145 30.4827C21.9342 30.4827 22.1125 30.661 22.1125 30.8807V34.2441C22.1125 34.4638 21.9342 34.6421 21.7145 34.6421Z" fill="#616161"/>
<path d="M35.3545 34.7605H31.1992C30.9794 34.7605 30.8011 34.5823 30.8011 34.3625V30.9991C30.8011 30.7794 30.9794 30.6011 31.1992 30.6011H35.3545C35.5743 30.6011 35.7526 30.7794 35.7526 30.9991V34.3625C35.7526 34.5823 35.5743 34.7605 35.3545 34.7605ZM31.5972 33.9644H34.9565V31.3972H31.5972V33.9644Z" fill="#616161"/>
<path d="M33.2772 34.7605C33.0574 34.7605 32.8792 34.5823 32.8792 34.3625V30.9991C32.8792 30.7794 33.0574 30.6011 33.2772 30.6011C33.497 30.6011 33.6752 30.7794 33.6752 30.9991V34.3625C33.6752 34.5823 33.497 34.7605 33.2772 34.7605Z" fill="#616161"/>
<path d="M23.7918 33.1682H19.6365C19.4167 33.1682 19.2384 32.9899 19.2384 32.7701C19.2384 32.5504 19.4167 32.3721 19.6365 32.3721H23.7918C24.0115 32.3721 24.1898 32.5504 24.1898 32.7701C24.1898 32.9899 24.0115 33.1682 23.7918 33.1682Z" fill="#616161"/>
<path d="M35.3545 33.2863H31.1992C30.9794 33.2863 30.8011 33.108 30.8011 32.8883C30.8011 32.6685 30.9794 32.4902 31.1992 32.4902H35.3545C35.5743 32.4902 35.7526 32.6685 35.7526 32.8883C35.7526 33.108 35.5743 33.2863 35.3545 33.2863Z" fill="#616161"/>
<path d="M41.1331 39.5295H13.9027C13.6829 39.5295 13.5046 39.3512 13.5046 39.1314C13.5046 38.9117 13.6829 38.7334 13.9027 38.7334H41.1331C41.3528 38.7334 41.5311 38.9117 41.5311 39.1314C41.5311 39.3512 41.3528 39.5295 41.1331 39.5295Z" fill="#616161"/>
<path d="M24.3287 42.4926C23.0447 42.4926 21.8962 42.2535 20.7684 42.0185C18.6945 41.5866 16.7361 41.1789 14.0244 42.2404C13.8198 42.3205 13.589 42.2196 13.5088 42.0144C13.4287 41.8098 13.5296 41.579 13.7341 41.4989C16.6663 40.3517 18.8341 40.803 20.9308 41.2397C22.9252 41.6551 24.8083 42.0469 27.3922 41.1817C30.1799 40.2481 32.2586 40.6807 34.2689 41.0994C36.3428 41.5314 38.3012 41.9391 41.0129 40.8776C41.2182 40.7975 41.4483 40.8983 41.5284 41.1036C41.6086 41.3088 41.5077 41.539 41.3025 41.6191C38.3703 42.7663 36.2025 42.315 34.1058 41.8783C32.1114 41.4629 30.2283 41.0711 27.6444 41.9363C26.4206 42.3461 25.3328 42.4926 24.3287 42.4926Z" fill="#616161"/>
<path d="M24.3287 44.6205C23.0447 44.6205 21.8962 44.3814 20.7684 44.1465C18.6945 43.7146 16.7361 43.3068 14.0244 44.3683C13.8198 44.4485 13.589 44.3476 13.5088 44.1423C13.4287 43.9378 13.5296 43.707 13.7341 43.6268C16.6663 42.4796 18.8341 42.9309 20.9308 43.3677C22.9252 43.783 24.8083 44.1748 27.3922 43.3096C30.1799 42.376 32.2586 42.8086 34.2689 43.2274C36.3428 43.6593 38.3012 44.067 41.0129 43.0055C41.2182 42.9254 41.4483 43.0263 41.5284 43.2315C41.6086 43.4368 41.5077 43.6669 41.3025 43.747C38.3703 44.8942 36.2025 44.4429 34.1058 44.0062C32.1114 43.5909 30.2283 43.199 27.6444 44.0642C26.4206 44.474 25.3328 44.6205 24.3287 44.6205Z" fill="#616161"/>
<path d="M24.3287 46.7475C23.0447 46.7475 21.8962 46.5084 20.7684 46.2734C18.6945 45.8415 16.7361 45.4338 14.0244 46.4953C13.8198 46.5754 13.589 46.4745 13.5088 46.2693C13.4287 46.0647 13.5296 45.8339 13.7341 45.7538C16.6663 44.6066 18.8341 45.0579 20.9308 45.4946C22.9252 45.9099 24.8083 46.3018 27.3922 45.4366C30.1799 44.5029 32.2586 44.9355 34.2689 45.3543C36.3428 45.7862 38.3012 46.194 41.0129 45.1332C41.2182 45.053 41.4483 45.1539 41.5284 45.3592C41.6086 45.5644 41.5077 45.7945 41.3025 45.8747C38.3703 47.0218 36.2025 46.5706 34.1058 46.1338C32.1114 45.7185 30.2283 45.3267 27.6444 46.1919C26.4206 46.601 25.3328 46.7475 24.3287 46.7475Z" fill="#616161"/>
<path d="M40.5264 37.942C39.2494 37.942 38.2107 36.9033 38.2107 35.6263C38.2107 35.0112 38.4595 34.4204 38.8886 33.9892C38.8119 33.7915 38.7725 33.5807 38.7725 33.3651C38.7725 32.4129 39.5472 31.6382 40.4995 31.6382C41.4518 31.6382 42.2264 32.4129 42.2264 33.3651C42.2264 33.5655 42.1919 33.7632 42.1248 33.9491C42.5796 34.3831 42.8428 34.9884 42.8428 35.6256C42.8428 36.9027 41.8042 37.942 40.5264 37.942ZM40.4995 32.4343C39.986 32.4343 39.5686 32.8517 39.5686 33.3651C39.5686 33.5448 39.6198 33.7196 39.7172 33.8696C39.8312 34.0458 39.7891 34.2801 39.6205 34.4052C39.2307 34.6954 39.0068 35.1405 39.0068 35.6256C39.0068 36.4638 39.6889 37.1459 40.5271 37.1459C41.3654 37.1459 42.0474 36.4638 42.0474 35.6256C42.0474 35.1329 41.807 34.6685 41.4041 34.3838C41.2327 34.2628 41.185 34.0292 41.2949 33.8509C41.384 33.7051 41.4317 33.5372 41.4317 33.3651C41.4303 32.8517 41.0129 32.4343 40.4995 32.4343Z" fill="#616161"/>
<path d="M40.5263 39.5294C40.3066 39.5294 40.1283 39.3511 40.1283 39.1314V34.7901C40.1283 34.5704 40.3066 34.3921 40.5263 34.3921C40.7461 34.3921 40.9244 34.5704 40.9244 34.7901V39.1314C40.9244 39.3511 40.7468 39.5294 40.5263 39.5294Z" fill="#616161"/>
<path d="M40.527 36.0209C40.422 36.0209 40.3169 35.9794 40.2388 35.8972C40.0875 35.7376 40.0937 35.486 40.2527 35.3347L40.9859 34.6374C41.1455 34.4861 41.3971 34.4923 41.5484 34.6512C41.6997 34.8109 41.6935 35.0624 41.5346 35.2137L40.8014 35.911C40.724 35.985 40.6251 36.0209 40.527 36.0209Z" fill="#616161"/>
<path d="M40.5264 36.8598C40.4275 36.8598 40.3294 36.8232 40.252 36.7499L39.5188 36.0526C39.3599 35.9013 39.3529 35.6491 39.505 35.4901C39.6563 35.3312 39.9086 35.3243 40.0675 35.4763L40.8007 36.1736C40.9597 36.3249 40.9666 36.5771 40.8145 36.7361C40.7371 36.819 40.6321 36.8598 40.5264 36.8598Z" fill="#616161"/>
<path d="M14.5095 37.942C13.2324 37.942 12.1937 36.9033 12.1937 35.6263C12.1937 35.0112 12.4425 34.4204 12.8717 33.9892C12.7949 33.7915 12.7556 33.5807 12.7556 33.3651C12.7556 32.4129 13.5302 31.6382 14.4825 31.6382C15.4348 31.6382 16.2095 32.4129 16.2095 33.3651C16.2095 33.5655 16.1749 33.7632 16.1079 33.9491C16.5626 34.3831 16.8259 34.9884 16.8259 35.6256C16.8252 36.9027 15.7865 37.942 14.5095 37.942ZM14.4818 32.4343C13.9684 32.4343 13.551 32.8517 13.551 33.3651C13.551 33.5448 13.6021 33.7196 13.6995 33.8696C13.8136 34.0458 13.7714 34.2801 13.6028 34.4052C13.213 34.6954 12.9891 35.1405 12.9891 35.6256C12.9891 36.4638 13.6712 37.1459 14.5095 37.1459C15.3477 37.1459 16.0298 36.4638 16.0298 35.6256C16.0298 35.1329 15.7893 34.6685 15.3864 34.3838C15.215 34.2628 15.1673 34.0292 15.2772 33.8509C15.3664 33.7051 15.4141 33.5372 15.4141 33.3651C15.4127 32.8517 14.9953 32.4343 14.4818 32.4343Z" fill="#616161"/>
<path d="M14.5095 39.5294C14.2897 39.5294 14.1115 39.3511 14.1115 39.1314V34.7901C14.1115 34.5704 14.2897 34.3921 14.5095 34.3921C14.7293 34.3921 14.9075 34.5704 14.9075 34.7901V39.1314C14.9069 39.3511 14.7293 39.5294 14.5095 39.5294Z" fill="#616161"/>
<path d="M14.5094 36.0209C14.4044 36.0209 14.2994 35.9794 14.2213 35.8972C14.0699 35.7376 14.0761 35.486 14.2351 35.3347L14.9683 34.6374C15.1279 34.4861 15.3795 34.4923 15.5308 34.6512C15.6822 34.8109 15.6759 35.0624 15.517 35.2137L14.7838 35.911C14.7064 35.985 14.6076 36.0209 14.5094 36.0209Z" fill="#616161"/>
<path d="M14.5088 36.8598C14.41 36.8598 14.3118 36.8231 14.2344 36.7499L13.5012 36.0526C13.3423 35.9013 13.3354 35.649 13.4874 35.4901C13.6387 35.3311 13.891 35.3249 14.0499 35.4763L14.7831 36.1735C14.9421 36.3249 14.949 36.5771 14.797 36.7361C14.7196 36.819 14.6145 36.8598 14.5088 36.8598Z" fill="#616161"/>
<path d="M5.688 65.552C5.824 65.552 5.94 65.6 6.036 65.696C6.132 65.784 6.18 65.896 6.18 66.032C6.18 66.168 6.132 66.28 6.036 66.368C5.94 66.456 5.824 66.5 5.688 66.5H1.536C1.4 66.5 1.284 66.452 1.188 66.356C1.1 66.26 1.056 66.144 1.056 66.008V58.58C1.056 58.444 1.104 58.332 1.2 58.244C1.296 58.148 1.416 58.1 1.56 58.1C1.696 58.1 1.812 58.148 1.908 58.244C2.004 58.332 2.052 58.444 2.052 58.58V65.768L1.812 65.552H5.688ZM12.5039 60.236C12.6399 60.236 12.7519 60.284 12.8399 60.38C12.9359 60.468 12.9839 60.58 12.9839 60.716V66.008C12.9839 66.144 12.9359 66.26 12.8399 66.356C12.7519 66.452 12.6399 66.5 12.5039 66.5C12.3599 66.5 12.2439 66.452 12.1559 66.356C12.0679 66.26 12.0239 66.144 12.0239 66.008V64.868L12.2519 64.844C12.2519 65.02 12.1919 65.212 12.0719 65.42C11.9519 65.628 11.7879 65.824 11.5799 66.008C11.3719 66.184 11.1239 66.332 10.8359 66.452C10.5559 66.564 10.2519 66.62 9.92391 66.62C9.37991 66.62 8.89191 66.48 8.45991 66.2C8.02791 65.912 7.68391 65.524 7.42791 65.036C7.17991 64.548 7.05591 63.992 7.05591 63.368C7.05591 62.736 7.17991 62.18 7.42791 61.7C7.68391 61.212 8.02791 60.832 8.45991 60.56C8.89191 60.28 9.37191 60.14 9.89991 60.14C10.2439 60.14 10.5639 60.196 10.8599 60.308C11.1559 60.42 11.4119 60.572 11.6279 60.764C11.8519 60.956 12.0239 61.168 12.1439 61.4C12.2719 61.632 12.3359 61.864 12.3359 62.096L12.0239 62.024V60.716C12.0239 60.58 12.0679 60.468 12.1559 60.38C12.2439 60.284 12.3599 60.236 12.5039 60.236ZM10.0319 65.732C10.4319 65.732 10.7839 65.628 11.0879 65.42C11.3999 65.212 11.6399 64.932 11.8079 64.58C11.9839 64.22 12.0719 63.816 12.0719 63.368C12.0719 62.928 11.9839 62.532 11.8079 62.18C11.6399 61.82 11.3999 61.54 11.0879 61.34C10.7839 61.132 10.4319 61.028 10.0319 61.028C9.63991 61.028 9.28791 61.128 8.97591 61.328C8.67191 61.528 8.43191 61.804 8.25591 62.156C8.07991 62.508 7.99191 62.912 7.99191 63.368C7.99191 63.816 8.07591 64.22 8.24391 64.58C8.41991 64.932 8.65991 65.212 8.96391 65.42C9.27591 65.628 9.63191 65.732 10.0319 65.732ZM15.339 66.5C15.195 66.5 15.079 66.452 14.991 66.356C14.903 66.26 14.859 66.144 14.859 66.008V58.1C14.859 57.964 14.903 57.852 14.991 57.764C15.079 57.668 15.195 57.62 15.339 57.62C15.475 57.62 15.587 57.668 15.675 57.764C15.771 57.852 15.819 57.964 15.819 58.1V66.008C15.819 66.144 15.771 66.26 15.675 66.356C15.587 66.452 15.475 66.5 15.339 66.5ZM19.323 60.26C19.451 60.26 19.559 60.312 19.647 60.416C19.743 60.512 19.791 60.612 19.791 60.716C19.791 60.852 19.727 60.972 19.599 61.076L15.711 64.472L15.675 63.356L18.987 60.404C19.083 60.308 19.195 60.26 19.323 60.26ZM19.455 66.488C19.319 66.488 19.199 66.436 19.095 66.332L16.539 63.608L17.259 62.948L19.791 65.66C19.887 65.764 19.935 65.884 19.935 66.02C19.935 66.164 19.879 66.28 19.767 66.368C19.655 66.448 19.551 66.488 19.455 66.488ZM23.924 66.62C23.284 66.62 22.724 66.484 22.244 66.212C21.764 65.94 21.388 65.568 21.116 65.096C20.852 64.616 20.72 64.064 20.72 63.44C20.72 62.744 20.856 62.152 21.128 61.664C21.408 61.168 21.768 60.792 22.208 60.536C22.656 60.272 23.128 60.14 23.624 60.14C23.992 60.14 24.348 60.208 24.692 60.344C25.036 60.48 25.34 60.68 25.604 60.944C25.868 61.2 26.08 61.512 26.24 61.88C26.4 62.24 26.484 62.644 26.492 63.092C26.492 63.22 26.444 63.328 26.348 63.416C26.252 63.504 26.14 63.548 26.012 63.548H21.272L21.056 62.72H25.676L25.484 62.888V62.624C25.452 62.296 25.34 62.016 25.148 61.784C24.964 61.544 24.736 61.36 24.464 61.232C24.2 61.104 23.92 61.04 23.624 61.04C23.384 61.04 23.144 61.084 22.904 61.172C22.672 61.252 22.46 61.388 22.268 61.58C22.084 61.764 21.932 62.004 21.812 62.3C21.7 62.596 21.644 62.952 21.644 63.368C21.644 63.832 21.736 64.24 21.92 64.592C22.112 64.944 22.376 65.224 22.712 65.432C23.048 65.632 23.44 65.732 23.888 65.732C24.168 65.732 24.412 65.696 24.62 65.624C24.828 65.552 25.008 65.464 25.16 65.36C25.312 65.248 25.44 65.136 25.544 65.024C25.648 64.952 25.748 64.916 25.844 64.916C25.964 64.916 26.06 64.956 26.132 65.036C26.212 65.116 26.252 65.212 26.252 65.324C26.252 65.46 26.188 65.58 26.06 65.684C25.836 65.932 25.532 66.152 25.148 66.344C24.764 66.528 24.356 66.62 23.924 66.62ZM30.5269 57.644C30.6629 57.644 30.8029 57.66 30.9469 57.692C31.0989 57.724 31.2269 57.78 31.3309 57.86C31.4429 57.94 31.4989 58.048 31.4989 58.184C31.4989 58.312 31.4589 58.42 31.3789 58.508C31.2989 58.588 31.2029 58.628 31.0909 58.628C31.0189 58.628 30.9189 58.608 30.7909 58.568C30.6629 58.52 30.5309 58.496 30.3949 58.496C30.2109 58.496 30.0589 58.536 29.9389 58.616C29.8269 58.696 29.7429 58.804 29.6869 58.94C29.6389 59.068 29.6149 59.212 29.6149 59.372V66.008C29.6149 66.144 29.5669 66.26 29.4709 66.356C29.3829 66.452 29.2709 66.5 29.1349 66.5C28.9909 66.5 28.8749 66.452 28.7869 66.356C28.6989 66.26 28.6549 66.144 28.6549 66.008V59.384C28.6549 58.848 28.8189 58.424 29.1469 58.112C29.4829 57.8 29.9429 57.644 30.5269 57.644ZM30.8629 60.392C30.9909 60.392 31.0989 60.436 31.1869 60.524C31.2749 60.604 31.3189 60.708 31.3189 60.836C31.3189 60.964 31.2749 61.072 31.1869 61.16C31.0989 61.24 30.9909 61.28 30.8629 61.28H27.8509C27.7229 61.28 27.6149 61.236 27.5269 61.148C27.4389 61.06 27.3949 60.956 27.3949 60.836C27.3949 60.7 27.4389 60.592 27.5269 60.512C27.6149 60.432 27.7229 60.392 27.8509 60.392H30.8629ZM33.0438 66.5C32.9078 66.5 32.7918 66.452 32.6958 66.356C32.6078 66.26 32.5638 66.144 32.5638 66.008V60.776C32.5638 60.64 32.6078 60.528 32.6958 60.44C32.7918 60.344 32.9078 60.296 33.0438 60.296C33.1878 60.296 33.3038 60.344 33.3918 60.44C33.4798 60.528 33.5238 60.64 33.5238 60.776V62.36L33.3798 62.108C33.4278 61.86 33.5118 61.62 33.6318 61.388C33.7598 61.148 33.9198 60.936 34.1118 60.752C34.3038 60.56 34.5238 60.412 34.7718 60.308C35.0198 60.196 35.2918 60.14 35.5878 60.14C35.7638 60.14 35.9238 60.184 36.0678 60.272C36.2198 60.352 36.2958 60.468 36.2958 60.62C36.2958 60.788 36.2518 60.912 36.1638 60.992C36.0758 61.072 35.9758 61.112 35.8638 61.112C35.7598 61.112 35.6598 61.092 35.5638 61.052C35.4678 61.004 35.3478 60.98 35.2038 60.98C35.0038 60.98 34.8038 61.036 34.6038 61.148C34.4118 61.252 34.2318 61.404 34.0638 61.604C33.9038 61.804 33.7718 62.032 33.6678 62.288C33.5718 62.536 33.5238 62.804 33.5238 63.092V66.008C33.5238 66.144 33.4758 66.26 33.3798 66.356C33.2918 66.452 33.1798 66.5 33.0438 66.5ZM43.0027 63.38C43.0027 64.004 42.8627 64.56 42.5827 65.048C42.3107 65.536 41.9387 65.92 41.4667 66.2C41.0027 66.48 40.4787 66.62 39.8947 66.62C39.3107 66.62 38.7827 66.48 38.3107 66.2C37.8387 65.92 37.4627 65.536 37.1827 65.048C36.9107 64.56 36.7747 64.004 36.7747 63.38C36.7747 62.756 36.9107 62.2 37.1827 61.712C37.4627 61.224 37.8387 60.84 38.3107 60.56C38.7827 60.28 39.3107 60.14 39.8947 60.14C40.4787 60.14 41.0027 60.28 41.4667 60.56C41.9387 60.84 42.3107 61.224 42.5827 61.712C42.8627 62.2 43.0027 62.756 43.0027 63.38ZM42.0427 63.38C42.0427 62.916 41.9467 62.508 41.7547 62.156C41.5707 61.804 41.3147 61.528 40.9867 61.328C40.6667 61.128 40.3027 61.028 39.8947 61.028C39.4867 61.028 39.1187 61.128 38.7907 61.328C38.4707 61.528 38.2147 61.804 38.0227 62.156C37.8307 62.508 37.7347 62.916 37.7347 63.38C37.7347 63.836 37.8307 64.24 38.0227 64.592C38.2147 64.944 38.4707 65.224 38.7907 65.432C39.1187 65.632 39.4867 65.732 39.8947 65.732C40.3027 65.732 40.6667 65.632 40.9867 65.432C41.3147 65.224 41.5707 64.944 41.7547 64.592C41.9467 64.24 42.0427 63.836 42.0427 63.38ZM47.5306 60.14C48.0746 60.14 48.5026 60.252 48.8146 60.476C49.1266 60.7 49.3466 61 49.4746 61.376C49.6106 61.752 49.6786 62.172 49.6786 62.636V66.008C49.6786 66.144 49.6306 66.26 49.5346 66.356C49.4466 66.452 49.3346 66.5 49.1986 66.5C49.0626 66.5 48.9466 66.452 48.8506 66.356C48.7626 66.26 48.7186 66.144 48.7186 66.008V62.66C48.7186 62.356 48.6706 62.084 48.5746 61.844C48.4866 61.596 48.3346 61.4 48.1186 61.256C47.9106 61.104 47.6226 61.028 47.2546 61.028C46.9186 61.028 46.6106 61.104 46.3306 61.256C46.0506 61.4 45.8266 61.596 45.6586 61.844C45.4906 62.084 45.4066 62.356 45.4066 62.66V66.008C45.4066 66.144 45.3586 66.26 45.2626 66.356C45.1746 66.452 45.0626 66.5 44.9266 66.5C44.7906 66.5 44.6746 66.452 44.5786 66.356C44.4906 66.26 44.4466 66.144 44.4466 66.008V60.776C44.4466 60.64 44.4906 60.528 44.5786 60.44C44.6746 60.344 44.7906 60.296 44.9266 60.296C45.0706 60.296 45.1866 60.344 45.2746 60.44C45.3626 60.528 45.4066 60.64 45.4066 60.776V61.628L45.1666 61.892C45.2066 61.684 45.2986 61.476 45.4426 61.268C45.5866 61.052 45.7666 60.86 45.9826 60.692C46.1986 60.524 46.4386 60.392 46.7026 60.296C46.9666 60.192 47.2426 60.14 47.5306 60.14ZM51.2144 60.332H54.0344C54.1624 60.332 54.2664 60.376 54.3464 60.464C54.4344 60.552 54.4784 60.656 54.4784 60.776C54.4784 60.904 54.4344 61.012 54.3464 61.1C54.2664 61.18 54.1624 61.22 54.0344 61.22H51.2144C51.0944 61.22 50.9904 61.176 50.9024 61.088C50.8144 61 50.7704 60.892 50.7704 60.764C50.7704 60.644 50.8144 60.544 50.9024 60.464C50.9904 60.376 51.0944 60.332 51.2144 60.332ZM52.4744 58.7C52.6104 58.7 52.7224 58.748 52.8104 58.844C52.8984 58.932 52.9424 59.044 52.9424 59.18V64.976C52.9424 65.168 52.9704 65.312 53.0264 65.408C53.0824 65.504 53.1544 65.572 53.2424 65.612C53.3384 65.644 53.4304 65.66 53.5184 65.66C53.5984 65.66 53.6664 65.648 53.7224 65.624C53.7864 65.592 53.8584 65.576 53.9384 65.576C54.0184 65.576 54.0904 65.616 54.1544 65.696C54.2264 65.768 54.2624 65.864 54.2624 65.984C54.2624 66.128 54.1784 66.252 54.0104 66.356C53.8424 66.452 53.6544 66.5 53.4464 66.5C53.3344 66.5 53.1944 66.492 53.0264 66.476C52.8664 66.46 52.7064 66.408 52.5464 66.32C52.3864 66.232 52.2504 66.088 52.1384 65.888C52.0344 65.68 51.9824 65.392 51.9824 65.024V59.18C51.9824 59.044 52.0304 58.932 52.1264 58.844C52.2224 58.748 52.3384 58.7 52.4744 58.7Z" fill="#616161"/>
</svg>
