<svg width="47" height="84" viewBox="0 0 47 84" fill="none" xmlns="http://www.w3.org/2000/svg">
<path d="M39.4375 24.5312C39.5784 24.5312 39.7135 24.4753 39.8132 24.3757C39.9128 24.276 39.9688 24.1409 39.9688 24V21.875C39.9688 21.7341 39.9128 21.599 39.8132 21.4993C39.7135 21.3997 39.5784 21.3438 39.4375 21.3438H38.5344L30.7011 16.1205C30.6137 16.0625 30.5112 16.0314 30.4062 16.0312H16.5938C16.4888 16.0314 16.3863 16.0625 16.2989 16.1205L8.46563 21.3438H7.5625C7.4216 21.3438 7.28648 21.3997 7.18685 21.4993C7.08722 21.599 7.03125 21.7341 7.03125 21.875V24C7.03125 24.1409 7.08722 24.276 7.18685 24.3757C7.28648 24.4753 7.4216 24.5312 7.5625 24.5312H8.09375V37.0427C7.77156 37.2282 7.5038 37.4951 7.31731 37.8167C7.13082 38.1383 7.03217 38.5032 7.03125 38.875C7.03125 39.2977 7.19916 39.7031 7.49805 40.002C7.79693 40.3008 8.20231 40.4688 8.625 40.4688H12.875C13.2977 40.4688 13.7031 40.3008 14.002 40.002C14.3008 39.7031 14.4688 39.2977 14.4688 38.875C14.4682 38.6956 14.4446 38.5171 14.3986 38.3438H15V39.9375C15 40.0784 15.056 40.2135 15.1556 40.3132C15.2552 40.4128 15.3904 40.4688 15.5312 40.4688H17.6562C17.7971 40.4688 17.9323 40.4128 18.0319 40.3132C18.1315 40.2135 18.1875 40.0784 18.1875 39.9375V38.3438H20.0591L18.2528 42.8647C10.9296 43.6642 7.03125 46.1101 7.03125 48.4375C7.03125 48.5784 7.08722 48.7135 7.18685 48.8132C7.28648 48.9128 7.4216 48.9688 7.5625 48.9688H13.9375C14.0784 48.9688 14.2135 48.9128 14.3132 48.8132C14.4128 48.7135 14.4688 48.5784 14.4688 48.4375C14.4688 47.3283 17.9043 45.7812 23.5 45.7812C29.0957 45.7812 32.5312 47.3283 32.5312 48.4375C32.5312 48.5784 32.5872 48.7135 32.6868 48.8132C32.7865 48.9128 32.9216 48.9688 33.0625 48.9688H39.4375C39.5784 48.9688 39.7135 48.9128 39.8132 48.8132C39.9128 48.7135 39.9688 48.5784 39.9688 48.4375C39.9688 46.1101 36.0704 43.6642 28.7493 42.8647L26.9409 38.3438H28.8125V39.9375C28.8125 40.0784 28.8685 40.2135 28.9681 40.3132C29.0677 40.4128 29.2029 40.4688 29.3438 40.4688H31.4688C31.6096 40.4688 31.7448 40.4128 31.8444 40.3132C31.944 40.2135 32 40.0784 32 39.9375V38.3438H32.6014C32.5554 38.5171 32.5318 38.6956 32.5312 38.875C32.5312 39.2977 32.6992 39.7031 32.998 40.002C33.2969 40.3008 33.7023 40.4688 34.125 40.4688H38.375C38.7977 40.4688 39.2031 40.3008 39.5019 40.002C39.8008 39.7031 39.9688 39.2977 39.9688 38.875C39.9678 38.5032 39.8692 38.1383 39.6827 37.8167C39.4962 37.4951 39.2284 37.2282 38.9062 37.0427V24.5312H39.4375ZM38.9062 23.4688H30.1937L28.745 22.4062H38.9062V23.4688ZM16.0625 26.6562V25.5938H30.9375V26.6562H16.0625ZM23.5 19.8775L29.8458 24.5312H27.3893L23.8087 21.9738C23.7186 21.9095 23.6107 21.8749 23.5 21.8749C23.3893 21.8749 23.2814 21.9095 23.1913 21.9738L19.6107 24.5312H17.1542L23.5 19.8775ZM25.5607 24.5312H21.4393L23.5 23.0592L25.5607 24.5312ZM16.7531 17.0938H30.2469L36.6219 21.3438H27.2963L23.814 18.79C23.7229 18.7233 23.6129 18.6873 23.5 18.6873C23.3871 18.6873 23.2771 18.7233 23.186 18.79L19.7037 21.3438H10.3781L16.7531 17.0938ZM8.09375 22.4062H18.255L16.8062 23.4688H8.09375V22.4062ZM12.875 39.4062H8.625C8.4841 39.4062 8.34898 39.3503 8.24935 39.2507C8.14972 39.151 8.09375 39.0159 8.09375 38.875C8.09372 38.5959 8.20347 38.3281 8.39929 38.1293C8.59512 37.9305 8.86129 37.8167 9.14031 37.8125C9.15412 37.8125 9.21044 37.821 9.22372 37.8215C9.31185 37.8282 9.40022 37.8122 9.48039 37.775C9.56057 37.7378 9.62986 37.6806 9.68166 37.609C9.73442 37.5384 9.76879 37.4559 9.78168 37.3687C9.79457 37.2815 9.78557 37.1925 9.7555 37.1097C9.70127 36.9755 9.67857 36.8306 9.68916 36.6863C9.69976 36.542 9.74335 36.402 9.81659 36.2772C9.88865 36.1379 9.98939 36.0154 10.1122 35.9178C10.235 35.8202 10.377 35.7497 10.529 35.7109C10.7865 35.6543 11.056 35.6992 11.2812 35.8363C11.3624 35.8835 11.4546 35.9083 11.5485 35.9083C11.6423 35.9083 11.7345 35.8835 11.8157 35.8363C12.0448 35.6967 12.3197 35.6532 12.5807 35.7151C12.78 35.7637 12.9616 35.8675 13.1046 36.0147C13.2475 36.1618 13.346 36.3464 13.3887 36.5471C13.42 36.7083 13.413 36.8747 13.3682 37.0328C13.3235 37.1908 13.2423 37.3362 13.1311 37.4571C13.0433 37.5546 12.9947 37.6812 12.9947 37.8125C12.9947 37.9438 13.0433 38.0704 13.1311 38.1679C13.3076 38.3611 13.4057 38.6133 13.4062 38.875C13.4062 39.0159 13.3503 39.151 13.2507 39.2507C13.151 39.3503 13.0159 39.4062 12.875 39.4062ZM14.3912 37.2812C14.4735 36.9782 14.4873 36.6606 14.4316 36.3516C14.3513 35.9479 14.157 35.5758 13.8717 35.2792C13.5864 34.9826 13.2221 34.774 12.8219 34.6781C12.3964 34.5772 11.9498 34.6144 11.5469 34.7844C11.1538 34.6197 10.7194 34.5806 10.3032 34.6723C9.8549 34.7772 9.45255 35.0243 9.15625 35.3767V24.5312H15.357L15.2173 24.6338C15.1499 24.6831 15.0951 24.7477 15.0574 24.8222C15.0196 24.8967 15 24.979 15 25.0625V37.2812H14.3912ZM16.0625 39.4062V27.7188H17.125V39.4062H16.0625ZM26.6875 37.2812H25.625V33.0312C25.625 32.4677 25.4011 31.9272 25.0026 31.5286C24.6041 31.1301 24.0636 30.9062 23.5 30.9062C22.9364 30.9062 22.3959 31.1301 21.9974 31.5286C21.5989 31.9272 21.375 32.4677 21.375 33.0312V37.2812H20.3125V33.0312C20.3125 32.1859 20.6483 31.3751 21.2461 30.7773C21.8439 30.1796 22.6546 29.8438 23.5 29.8438C24.3454 29.8438 25.1561 30.1796 25.7539 30.7773C26.3517 31.3751 26.6875 32.1859 26.6875 33.0312V37.2812ZM24.5625 37.2812H22.4375V33.0312C22.4375 32.7495 22.5494 32.4792 22.7487 32.2799C22.948 32.0807 23.2182 31.9688 23.5 31.9688C23.7818 31.9688 24.052 32.0807 24.2513 32.2799C24.4506 32.4792 24.5625 32.7495 24.5625 33.0312V37.2812ZM38.7931 47.9062H33.5061C32.8054 45.8344 28.0215 44.7188 23.5 44.7188C18.9785 44.7188 14.1946 45.8344 13.4939 47.9062H8.20691C9.09516 45.7993 15.1275 43.6562 23.5 43.6562C31.8725 43.6562 37.9048 45.7993 38.7931 47.9062ZM27.5598 42.7531C26.2965 42.6506 24.945 42.5938 23.5 42.5938C22.055 42.5938 20.7035 42.6506 19.4402 42.7531L21.2034 38.3438H25.7966L27.5598 42.7531ZM27.75 37.2812V33.0312C27.75 31.9041 27.3022 30.8231 26.5052 30.026C25.7082 29.229 24.6272 28.7812 23.5 28.7812C22.3728 28.7812 21.2918 29.229 20.4948 30.026C19.6978 30.8231 19.25 31.9041 19.25 33.0312V37.2812H18.1875V27.7188H28.8125V37.2812H27.75ZM29.875 39.4062V27.7188H30.9375V39.4062H29.875ZM38.375 39.4062H34.125C33.9841 39.4062 33.849 39.3503 33.7493 39.2507C33.6497 39.151 33.5938 39.0159 33.5938 38.875C33.5947 38.6131 33.6934 38.3609 33.8705 38.1679C33.9583 38.0704 34.0069 37.9438 34.0069 37.8125C34.0069 37.6812 33.9583 37.5546 33.8705 37.4571C33.7593 37.3362 33.6781 37.1908 33.6333 37.0328C33.5886 36.8747 33.5816 36.7083 33.6129 36.5471C33.6556 36.3464 33.7541 36.1618 33.897 36.0147C34.04 35.8675 34.2216 35.7637 34.4209 35.7151C34.498 35.6969 34.577 35.6876 34.6562 35.6875C34.8435 35.6885 35.027 35.7399 35.1875 35.8363C35.2686 35.8835 35.3608 35.9083 35.4547 35.9083C35.5486 35.9083 35.6408 35.8835 35.7219 35.8363C35.9465 35.6994 36.2153 35.6547 36.4721 35.7114C36.624 35.7502 36.7661 35.8207 36.8889 35.9183C37.0117 36.0159 37.1124 36.1384 37.1845 36.2777C37.2577 36.4025 37.3013 36.5425 37.3119 36.6868C37.3225 36.8312 37.2998 36.976 37.2456 37.1102C37.2155 37.193 37.2065 37.282 37.2194 37.3692C37.2323 37.4564 37.2666 37.539 37.3194 37.6096C37.3712 37.6811 37.4405 37.7383 37.5207 37.7754C37.6009 37.8126 37.6892 37.8287 37.7773 37.8221C37.7906 37.8221 37.8305 37.8146 37.8453 37.813C38.1271 37.813 38.3974 37.925 38.5966 38.1242C38.7959 38.3235 38.9078 38.5937 38.9078 38.8755C38.9078 38.9454 38.8939 39.0145 38.8671 39.079C38.8403 39.1435 38.801 39.2021 38.7515 39.2514C38.702 39.3007 38.6433 39.3398 38.5787 39.3663C38.5141 39.3929 38.4449 39.4065 38.375 39.4062ZM37.8438 35.3767C37.5473 35.0247 37.145 34.778 36.6968 34.6733C36.2807 34.5808 35.8462 34.6196 35.4531 34.7844C35.0503 34.6141 34.6036 34.5769 34.1781 34.6781C33.7779 34.774 33.4136 34.9826 33.1283 35.2792C32.843 35.5758 32.6487 35.9479 32.5684 36.3516C32.5127 36.6606 32.5265 36.9782 32.6088 37.2812H32V25.0625C32 24.979 31.9804 24.8967 31.9426 24.8222C31.9049 24.7477 31.8501 24.6831 31.7827 24.6338L31.643 24.5312H37.8438V35.3767Z" fill="#616161"/>
<path d="M11.8125 25.5938C11.3898 25.5938 10.9844 25.7617 10.6855 26.0605C10.3867 26.3594 10.2188 26.7648 10.2188 27.1875V30.375C10.2188 30.5159 10.2747 30.651 10.3743 30.7507C10.474 30.8503 10.6091 30.9062 10.75 30.9062H12.875C13.0159 30.9062 13.151 30.8503 13.2507 30.7507C13.3503 30.651 13.4062 30.5159 13.4062 30.375V27.1875C13.4062 26.7648 13.2383 26.3594 12.9395 26.0605C12.6406 25.7617 12.2352 25.5938 11.8125 25.5938ZM12.3438 29.8438H11.2812V27.1875C11.2812 27.0466 11.3372 26.9115 11.4368 26.8118C11.5365 26.7122 11.6716 26.6562 11.8125 26.6562C11.9534 26.6562 12.0885 26.7122 12.1882 26.8118C12.2878 26.9115 12.3438 27.0466 12.3438 27.1875V29.8438Z" fill="#616161"/>
<path d="M34.125 30.9062H36.25C36.3909 30.9062 36.526 30.8503 36.6257 30.7507C36.7253 30.651 36.7812 30.5159 36.7812 30.375V27.1875C36.7812 26.7648 36.6133 26.3594 36.3145 26.0605C36.0156 25.7617 35.6102 25.5938 35.1875 25.5938C34.7648 25.5938 34.3594 25.7617 34.0605 26.0605C33.7617 26.3594 33.5938 26.7648 33.5938 27.1875V30.375C33.5938 30.5159 33.6497 30.651 33.7493 30.7507C33.849 30.8503 33.9841 30.9062 34.125 30.9062ZM34.6562 27.1875C34.6562 27.0466 34.7122 26.9115 34.8118 26.8118C34.9115 26.7122 35.0466 26.6562 35.1875 26.6562C35.3284 26.6562 35.4635 26.7122 35.5632 26.8118C35.6628 26.9115 35.7188 27.0466 35.7188 27.1875V29.8438H34.6562V27.1875Z" fill="#616161"/>
<path d="M1.548 58.088C1.62 58.088 1.696 58.108 1.776 58.148C1.864 58.188 1.932 58.24 1.98 58.304L5.16 63.116L4.74 63.104L7.956 58.304C8.06 58.152 8.196 58.08 8.364 58.088C8.492 58.096 8.604 58.144 8.7 58.232C8.796 58.32 8.844 58.436 8.844 58.58V66.008C8.844 66.144 8.796 66.26 8.7 66.356C8.604 66.452 8.484 66.5 8.34 66.5C8.196 66.5 8.076 66.452 7.98 66.356C7.884 66.26 7.836 66.144 7.836 66.008V59.492L8.136 59.552L5.304 63.86C5.256 63.916 5.196 63.964 5.124 64.004C5.06 64.044 4.992 64.064 4.92 64.064C4.848 64.064 4.776 64.044 4.704 64.004C4.632 63.964 4.572 63.916 4.524 63.86L1.728 59.552L1.98 59.24V66.008C1.98 66.144 1.936 66.26 1.848 66.356C1.76 66.452 1.648 66.5 1.512 66.5C1.376 66.5 1.264 66.452 1.176 66.356C1.096 66.26 1.056 66.144 1.056 66.008V58.58C1.056 58.452 1.1 58.34 1.188 58.244C1.284 58.14 1.404 58.088 1.548 58.088ZM15.8906 60.236C16.0266 60.236 16.1386 60.284 16.2266 60.38C16.3226 60.468 16.3706 60.58 16.3706 60.716V66.008C16.3706 66.144 16.3226 66.26 16.2266 66.356C16.1386 66.452 16.0266 66.5 15.8906 66.5C15.7466 66.5 15.6306 66.452 15.5426 66.356C15.4546 66.26 15.4106 66.144 15.4106 66.008V64.868L15.6386 64.844C15.6386 65.02 15.5786 65.212 15.4586 65.42C15.3386 65.628 15.1746 65.824 14.9666 66.008C14.7586 66.184 14.5106 66.332 14.2226 66.452C13.9426 66.564 13.6386 66.62 13.3106 66.62C12.7666 66.62 12.2786 66.48 11.8466 66.2C11.4146 65.912 11.0706 65.524 10.8146 65.036C10.5666 64.548 10.4426 63.992 10.4426 63.368C10.4426 62.736 10.5666 62.18 10.8146 61.7C11.0706 61.212 11.4146 60.832 11.8466 60.56C12.2786 60.28 12.7586 60.14 13.2866 60.14C13.6306 60.14 13.9506 60.196 14.2466 60.308C14.5426 60.42 14.7986 60.572 15.0146 60.764C15.2386 60.956 15.4106 61.168 15.5306 61.4C15.6586 61.632 15.7226 61.864 15.7226 62.096L15.4106 62.024V60.716C15.4106 60.58 15.4546 60.468 15.5426 60.38C15.6306 60.284 15.7466 60.236 15.8906 60.236ZM13.4186 65.732C13.8186 65.732 14.1706 65.628 14.4746 65.42C14.7866 65.212 15.0266 64.932 15.1946 64.58C15.3706 64.22 15.4586 63.816 15.4586 63.368C15.4586 62.928 15.3706 62.532 15.1946 62.18C15.0266 61.82 14.7866 61.54 14.4746 61.34C14.1706 61.132 13.8186 61.028 13.4186 61.028C13.0266 61.028 12.6746 61.128 12.3626 61.328C12.0586 61.528 11.8186 61.804 11.6426 62.156C11.4666 62.508 11.3786 62.912 11.3786 63.368C11.3786 63.816 11.4626 64.22 11.6306 64.58C11.8066 64.932 12.0466 65.212 12.3506 65.42C12.6626 65.628 13.0186 65.732 13.4186 65.732ZM21.2337 60.14C21.7777 60.14 22.2057 60.252 22.5177 60.476C22.8297 60.7 23.0497 61 23.1777 61.376C23.3137 61.752 23.3817 62.172 23.3817 62.636V66.008C23.3817 66.144 23.3337 66.26 23.2377 66.356C23.1497 66.452 23.0377 66.5 22.9017 66.5C22.7657 66.5 22.6497 66.452 22.5537 66.356C22.4657 66.26 22.4217 66.144 22.4217 66.008V62.66C22.4217 62.356 22.3737 62.084 22.2777 61.844C22.1897 61.596 22.0377 61.4 21.8217 61.256C21.6137 61.104 21.3257 61.028 20.9577 61.028C20.6217 61.028 20.3137 61.104 20.0337 61.256C19.7537 61.4 19.5297 61.596 19.3617 61.844C19.1937 62.084 19.1097 62.356 19.1097 62.66V66.008C19.1097 66.144 19.0617 66.26 18.9657 66.356C18.8777 66.452 18.7657 66.5 18.6297 66.5C18.4937 66.5 18.3777 66.452 18.2817 66.356C18.1937 66.26 18.1497 66.144 18.1497 66.008V60.776C18.1497 60.64 18.1937 60.528 18.2817 60.44C18.3777 60.344 18.4937 60.296 18.6297 60.296C18.7737 60.296 18.8897 60.344 18.9777 60.44C19.0657 60.528 19.1097 60.64 19.1097 60.776V61.628L18.8697 61.892C18.9097 61.684 19.0017 61.476 19.1457 61.268C19.2897 61.052 19.4697 60.86 19.6857 60.692C19.9017 60.524 20.1417 60.392 20.4057 60.296C20.6697 60.192 20.9457 60.14 21.2337 60.14ZM24.8095 65.516C24.7375 65.412 24.7055 65.304 24.7135 65.192C24.7215 65.072 24.7895 64.968 24.9175 64.88C24.9975 64.824 25.0895 64.8 25.1935 64.808C25.3055 64.816 25.4055 64.868 25.4935 64.964C25.7175 65.228 25.9735 65.44 26.2615 65.6C26.5495 65.752 26.9015 65.828 27.3175 65.828C27.5095 65.82 27.7015 65.788 27.8935 65.732C28.0855 65.676 28.2455 65.58 28.3735 65.444C28.5095 65.3 28.5775 65.112 28.5775 64.88C28.5775 64.656 28.5095 64.48 28.3735 64.352C28.2375 64.216 28.0615 64.108 27.8455 64.028C27.6295 63.94 27.3935 63.864 27.1375 63.8C26.8735 63.728 26.6135 63.648 26.3575 63.56C26.1015 63.464 25.8695 63.348 25.6615 63.212C25.4615 63.068 25.2975 62.892 25.1695 62.684C25.0495 62.468 24.9895 62.208 24.9895 61.904C24.9895 61.544 25.0855 61.232 25.2775 60.968C25.4775 60.704 25.7415 60.5 26.0695 60.356C26.4055 60.212 26.7695 60.14 27.1615 60.14C27.3855 60.14 27.6175 60.168 27.8575 60.224C28.1055 60.272 28.3455 60.36 28.5775 60.488C28.8095 60.608 29.0135 60.776 29.1895 60.992C29.2615 61.072 29.3015 61.172 29.3095 61.292C29.3175 61.412 29.2655 61.52 29.1535 61.616C29.0655 61.68 28.9655 61.708 28.8535 61.7C28.7495 61.692 28.6615 61.652 28.5895 61.58C28.4215 61.38 28.2095 61.228 27.9535 61.124C27.7055 61.012 27.4295 60.956 27.1255 60.956C26.9335 60.956 26.7455 60.984 26.5615 61.04C26.3775 61.096 26.2215 61.192 26.0935 61.328C25.9735 61.456 25.9135 61.636 25.9135 61.868C25.9215 62.084 25.9935 62.26 26.1295 62.396C26.2655 62.532 26.4495 62.644 26.6815 62.732C26.9135 62.812 27.1695 62.892 27.4495 62.972C27.7055 63.036 27.9495 63.112 28.1815 63.2C28.4215 63.28 28.6375 63.388 28.8295 63.524C29.0215 63.66 29.1735 63.836 29.2855 64.052C29.3975 64.26 29.4535 64.524 29.4535 64.844C29.4535 65.212 29.3495 65.532 29.1415 65.804C28.9335 66.068 28.6575 66.272 28.3135 66.416C27.9775 66.552 27.6135 66.62 27.2215 66.62C26.7815 66.62 26.3455 66.536 25.9135 66.368C25.4895 66.2 25.1215 65.916 24.8095 65.516ZM31.7651 66.008C31.7651 66.144 31.7171 66.26 31.6211 66.356C31.5331 66.452 31.4211 66.5 31.2851 66.5C31.1411 66.5 31.0251 66.452 30.9371 66.356C30.8491 66.26 30.8051 66.144 30.8051 66.008V60.68C30.8051 60.544 30.8491 60.432 30.9371 60.344C31.0331 60.248 31.1491 60.2 31.2851 60.2C31.4211 60.2 31.5331 60.248 31.6211 60.344C31.7171 60.432 31.7651 60.544 31.7651 60.68V66.008ZM31.2851 59.396C31.0851 59.396 30.9371 59.356 30.8411 59.276C30.7451 59.196 30.6971 59.072 30.6971 58.904V58.736C30.6971 58.568 30.7491 58.444 30.8531 58.364C30.9571 58.284 31.1051 58.244 31.2971 58.244C31.4891 58.244 31.6331 58.284 31.7291 58.364C31.8251 58.444 31.8731 58.568 31.8731 58.736V58.904C31.8731 59.072 31.8211 59.196 31.7171 59.276C31.6211 59.356 31.4771 59.396 31.2851 59.396ZM39.3816 63.38C39.3816 64.004 39.2416 64.56 38.9616 65.048C38.6896 65.536 38.3176 65.92 37.8456 66.2C37.3816 66.48 36.8576 66.62 36.2736 66.62C35.6896 66.62 35.1616 66.48 34.6896 66.2C34.2176 65.92 33.8416 65.536 33.5616 65.048C33.2896 64.56 33.1536 64.004 33.1536 63.38C33.1536 62.756 33.2896 62.2 33.5616 61.712C33.8416 61.224 34.2176 60.84 34.6896 60.56C35.1616 60.28 35.6896 60.14 36.2736 60.14C36.8576 60.14 37.3816 60.28 37.8456 60.56C38.3176 60.84 38.6896 61.224 38.9616 61.712C39.2416 62.2 39.3816 62.756 39.3816 63.38ZM38.4216 63.38C38.4216 62.916 38.3256 62.508 38.1336 62.156C37.9496 61.804 37.6936 61.528 37.3656 61.328C37.0456 61.128 36.6816 61.028 36.2736 61.028C35.8656 61.028 35.4976 61.128 35.1696 61.328C34.8496 61.528 34.5936 61.804 34.4016 62.156C34.2096 62.508 34.1136 62.916 34.1136 63.38C34.1136 63.836 34.2096 64.24 34.4016 64.592C34.5936 64.944 34.8496 65.224 35.1696 65.432C35.4976 65.632 35.8656 65.732 36.2736 65.732C36.6816 65.732 37.0456 65.632 37.3656 65.432C37.6936 65.224 37.9496 64.944 38.1336 64.592C38.3256 64.24 38.4216 63.836 38.4216 63.38ZM43.9095 60.14C44.4535 60.14 44.8815 60.252 45.1935 60.476C45.5055 60.7 45.7255 61 45.8535 61.376C45.9895 61.752 46.0575 62.172 46.0575 62.636V66.008C46.0575 66.144 46.0095 66.26 45.9135 66.356C45.8255 66.452 45.7135 66.5 45.5775 66.5C45.4415 66.5 45.3255 66.452 45.2295 66.356C45.1415 66.26 45.0975 66.144 45.0975 66.008V62.66C45.0975 62.356 45.0495 62.084 44.9535 61.844C44.8655 61.596 44.7135 61.4 44.4975 61.256C44.2895 61.104 44.0015 61.028 43.6335 61.028C43.2975 61.028 42.9895 61.104 42.7095 61.256C42.4295 61.4 42.2055 61.596 42.0375 61.844C41.8695 62.084 41.7855 62.356 41.7855 62.66V66.008C41.7855 66.144 41.7375 66.26 41.6415 66.356C41.5535 66.452 41.4415 66.5 41.3055 66.5C41.1695 66.5 41.0535 66.452 40.9575 66.356C40.8695 66.26 40.8255 66.144 40.8255 66.008V60.776C40.8255 60.64 40.8695 60.528 40.9575 60.44C41.0535 60.344 41.1695 60.296 41.3055 60.296C41.4495 60.296 41.5655 60.344 41.6535 60.44C41.7415 60.528 41.7855 60.64 41.7855 60.776V61.628L41.5455 61.892C41.5855 61.684 41.6775 61.476 41.8215 61.268C41.9655 61.052 42.1455 60.86 42.3615 60.692C42.5775 60.524 42.8175 60.392 43.0815 60.296C43.3455 60.192 43.6215 60.14 43.9095 60.14Z" fill="#616161"/>
</svg>
