<svg width="34" height="84" viewBox="0 0 34 84" fill="none" xmlns="http://www.w3.org/2000/svg">
<g clip-path="url(#clip0_8_332)">
<path fill-rule="evenodd" clip-rule="evenodd" d="M19.0227 36.3487L11.7311 46.1267C11.5433 46.3771 11.594 46.7322 11.8444 46.92C12.0947 47.1078 12.4499 47.0571 12.6377 46.8067L19.9311 37.0258C20.0525 36.8638 20.0784 36.6494 19.9989 36.4632C19.9193 36.277 19.7465 36.1475 19.5455 36.1232C19.3445 36.099 19.1459 36.1839 19.0245 36.3458L19.0227 36.3487Z" fill="#616161"/>
<path d="M1.23685 39.038L4.26162 40.0483C4.36315 40.0853 4.47032 40.1045 4.57836 40.105C4.75394 40.1043 4.92612 40.0565 5.07699 39.9667L15.424 33.7677C15.5551 34.1404 15.7136 34.503 15.8982 34.8522L14.085 37.2831C13.9333 37.4889 13.8684 37.7461 13.9043 37.9993L14.0539 39.0488L12.9291 39.382C12.5106 39.5035 12.2248 39.8892 12.2304 40.3249C12.2413 40.5619 12.2707 40.7978 12.3182 41.0303L12.3624 41.3137L11.2291 41.6485C10.7692 41.7883 10.48 42.2425 10.548 42.7184L10.671 43.5859L9.5819 43.9101C8.69574 44.1695 8.16404 45.0732 8.36757 45.9738L8.9909 48.7368C9.08467 49.1787 9.473 49.4961 9.92474 49.5C9.95024 49.5 9.97634 49.5 10.0024 49.4966L13.1813 49.279C13.4702 49.2666 13.738 49.1238 13.9094 48.8909L21.3517 38.9122C24.1646 39.48 27.0646 38.4818 28.9321 36.3031C30.7996 34.1243 31.3425 31.1058 30.3512 28.4128C32.7523 26.7703 33.9029 23.8253 33.2514 20.99C32.6 18.1548 30.2791 16.0075 27.4019 15.5778C24.5246 15.1482 21.6777 16.5238 20.2263 19.0451C17.9761 19.0175 15.8207 19.9501 14.3003 21.6091C12.7798 23.2681 12.0383 25.4965 12.2615 27.7357L9.6481 29.2985C9.43475 29.4326 9.28149 29.644 9.22026 29.8884L8.96129 30.914L7.7951 30.7939C7.36062 30.7452 6.94726 30.993 6.78536 31.3991C6.70508 31.6268 6.64253 31.8604 6.59837 32.0978L6.53376 32.3692L5.36817 32.2513C4.88495 32.1944 4.43427 32.5044 4.31481 32.9761L4.10119 33.826L2.97245 33.7127C2.5974 33.6706 2.21897 33.7535 1.89585 33.9484C1.45041 34.2087 1.14382 34.6538 1.05949 35.1627L0.586361 37.95C0.493727 38.4256 0.774151 38.8945 1.23685 39.038ZM28.7623 34.6C27.2386 37.2001 24.1769 38.4765 21.2576 37.7285C21.0354 37.6719 20.801 37.755 20.6638 37.9388L13.0475 48.1531L10.0675 48.3571L9.4714 45.7289C9.43183 45.5514 9.47087 45.3655 9.57851 45.219C9.65926 45.1125 9.77208 45.0348 9.90037 44.9974L11.1255 44.633C11.5892 44.4984 11.8817 44.0412 11.8094 43.5638L11.6864 42.6962L12.8198 42.3613C13.2842 42.2264 13.5767 41.7679 13.5031 41.2898L13.4357 40.8523C13.4096 40.6868 13.3847 40.5344 13.3711 40.4318L14.5146 40.0936C14.9765 39.9574 15.2669 39.501 15.1946 39.0249L15.0348 37.9029L17.0254 35.2334C17.1623 35.0501 17.1755 34.8024 17.0588 34.6055C15.3275 31.6924 16.0053 27.9492 18.6484 25.8282C21.2914 23.7073 25.0926 23.8561 27.5616 26.1772C28.1072 26.6869 28.5636 27.2842 28.9119 27.9446C28.2597 28.2567 27.5554 28.4457 26.8346 28.5022C26.6584 27.443 25.761 26.6541 24.6879 26.6152C23.6148 26.5763 22.6627 27.298 22.4101 28.3417C22.1576 29.3853 22.6746 30.4625 23.6468 30.9184C24.6191 31.3743 25.7778 31.0829 26.4187 30.2214C26.547 30.0445 26.6484 29.8495 26.7196 29.6428C27.6329 29.598 28.5287 29.3752 29.3567 28.9872C29.9826 30.8559 29.7657 32.9041 28.7623 34.6ZM23.8892 27.989C24.0463 27.8595 24.2357 27.775 24.4371 27.7448C24.4921 27.7369 24.5476 27.7329 24.6031 27.7329C25.0817 27.7343 25.5078 28.0361 25.6678 28.4871C25.0525 28.4164 24.4523 28.2482 23.8897 27.989H23.8892ZM25.4536 29.6051C25.1685 29.9384 24.7158 30.0759 24.2934 29.9574C23.871 29.8389 23.5559 29.4861 23.4856 29.0531C24.1112 29.3326 24.7745 29.5185 25.4542 29.605L25.4536 29.6051ZM26.3575 16.6345C28.9271 16.6308 31.2079 18.2796 32.01 20.7209C32.812 23.1622 31.9536 25.8424 29.8826 27.3634C29.48 26.6116 28.9569 25.9309 28.3339 25.3484C28.1639 25.1914 27.9894 25.0492 27.8114 24.9086C27.7013 24.4865 27.5557 24.0744 27.3762 23.6768C26.446 21.6157 24.6733 20.055 22.511 19.3935C22.1765 19.2929 21.8358 19.2144 21.491 19.1584C22.6025 17.5714 24.4201 16.6287 26.3575 16.6345ZM2.18205 35.3514C2.2114 35.1706 2.32037 35.0125 2.47894 34.9208C2.59196 34.8518 2.72477 34.8225 2.85631 34.8375L4.13067 34.9678C4.60984 35.0226 5.05415 34.7103 5.16478 34.2409L5.379 33.3909L6.55707 33.5121C7.03823 33.5574 7.48028 33.2443 7.59742 32.7755L7.69716 32.3568C7.7368 32.1908 7.77193 32.036 7.79856 31.9335L8.98513 32.0554C9.46377 32.1076 9.90701 31.7971 10.0215 31.3295L10.3014 30.2245L13.1567 28.5178C13.3528 28.4007 13.4593 28.1772 13.427 27.9512C12.942 24.6489 14.9276 21.4835 18.1117 20.4826C21.2959 19.4818 24.7354 20.9421 26.2269 23.928C24.9686 23.3449 23.5781 23.1066 22.1974 23.2373C19.9648 23.4374 17.9211 24.5727 16.5715 26.3626C15.222 28.1523 14.6926 30.4296 15.1143 32.6312L4.56137 38.9536L1.73096 38.0084L2.18205 35.3514Z" fill="#616161"/>
<path fill-rule="evenodd" clip-rule="evenodd" d="M13.7615 32.1203C14.0257 31.9577 14.1101 31.6129 13.9508 31.3468C13.7915 31.0806 13.4478 30.992 13.1796 31.148L4.11717 36.5804C3.94074 36.6831 3.83316 36.8727 3.83549 37.0768C3.83781 37.2809 3.94983 37.468 4.12859 37.5665C4.30735 37.6651 4.52529 37.6598 4.69914 37.5528L13.7615 32.1203Z" fill="#616161"/>
</g>
<path d="M11.772 58.1C11.908 58.1 12.016 58.144 12.096 58.232C12.176 58.312 12.216 58.416 12.216 58.544V65.996C12.216 66.148 12.168 66.272 12.072 66.368C11.976 66.456 11.86 66.5 11.724 66.5C11.652 66.5 11.58 66.488 11.508 66.464C11.436 66.432 11.38 66.392 11.34 66.344L6.204 59.552L6.444 59.408V66.056C6.444 66.184 6.4 66.292 6.312 66.38C6.232 66.46 6.124 66.5 5.988 66.5C5.86 66.5 5.756 66.46 5.676 66.38C5.596 66.292 5.556 66.184 5.556 66.056V58.58C5.556 58.436 5.6 58.32 5.688 58.232C5.784 58.144 5.896 58.1 6.024 58.1C6.096 58.1 6.168 58.116 6.24 58.148C6.32 58.172 6.38 58.212 6.42 58.268L11.484 64.964L11.328 65.156V58.544C11.328 58.416 11.368 58.312 11.448 58.232C11.536 58.144 11.644 58.1 11.772 58.1ZM17.0216 66.62C16.3816 66.62 15.8216 66.484 15.3416 66.212C14.8616 65.94 14.4856 65.568 14.2136 65.096C13.9496 64.616 13.8176 64.064 13.8176 63.44C13.8176 62.744 13.9536 62.152 14.2256 61.664C14.5056 61.168 14.8656 60.792 15.3056 60.536C15.7536 60.272 16.2256 60.14 16.7216 60.14C17.0896 60.14 17.4456 60.208 17.7896 60.344C18.1336 60.48 18.4376 60.68 18.7016 60.944C18.9656 61.2 19.1776 61.512 19.3376 61.88C19.4976 62.24 19.5816 62.644 19.5896 63.092C19.5896 63.22 19.5416 63.328 19.4456 63.416C19.3496 63.504 19.2376 63.548 19.1096 63.548H14.3696L14.1536 62.72H18.7736L18.5816 62.888V62.624C18.5496 62.296 18.4376 62.016 18.2456 61.784C18.0616 61.544 17.8336 61.36 17.5616 61.232C17.2976 61.104 17.0176 61.04 16.7216 61.04C16.4816 61.04 16.2416 61.084 16.0016 61.172C15.7696 61.252 15.5576 61.388 15.3656 61.58C15.1816 61.764 15.0296 62.004 14.9096 62.3C14.7976 62.596 14.7416 62.952 14.7416 63.368C14.7416 63.832 14.8336 64.24 15.0176 64.592C15.2096 64.944 15.4736 65.224 15.8096 65.432C16.1456 65.632 16.5376 65.732 16.9856 65.732C17.2656 65.732 17.5096 65.696 17.7176 65.624C17.9256 65.552 18.1056 65.464 18.2576 65.36C18.4096 65.248 18.5376 65.136 18.6416 65.024C18.7456 64.952 18.8456 64.916 18.9416 64.916C19.0616 64.916 19.1576 64.956 19.2296 65.036C19.3096 65.116 19.3496 65.212 19.3496 65.324C19.3496 65.46 19.2856 65.58 19.1576 65.684C18.9336 65.932 18.6296 66.152 18.2456 66.344C17.8616 66.528 17.4536 66.62 17.0216 66.62ZM28.3525 60.188C28.4805 60.188 28.5885 60.232 28.6765 60.32C28.7725 60.408 28.8205 60.524 28.8205 60.668C28.8205 60.7 28.8165 60.736 28.8085 60.776C28.8085 60.808 28.8005 60.84 28.7845 60.872L26.9365 66.188C26.8965 66.292 26.8285 66.372 26.7325 66.428C26.6445 66.484 26.5485 66.508 26.4445 66.5C26.2605 66.492 26.1205 66.388 26.0245 66.188L24.5125 62.396L24.7525 62.432L23.3845 66.188C23.2965 66.388 23.1565 66.492 22.9645 66.5C22.8605 66.508 22.7605 66.484 22.6645 66.428C22.5685 66.372 22.5045 66.292 22.4725 66.188L20.5885 60.872C20.5645 60.8 20.5525 60.732 20.5525 60.668C20.5525 60.54 20.5965 60.428 20.6845 60.332C20.7725 60.236 20.8925 60.188 21.0445 60.188C21.1405 60.188 21.2285 60.212 21.3085 60.26C21.3885 60.308 21.4445 60.384 21.4765 60.488L23.0965 65.216L22.8445 65.204L24.2485 61.604C24.3285 61.404 24.4765 61.304 24.6925 61.304C24.8045 61.304 24.8925 61.332 24.9565 61.388C25.0285 61.436 25.0805 61.508 25.1125 61.604L26.5765 65.204L26.2765 65.228L27.8965 60.488C27.9685 60.288 28.1205 60.188 28.3525 60.188Z" fill="#616161"/>
<defs>
<clipPath id="clip0_8_332">
<rect width="34" height="34" fill="white" transform="translate(0 15.5)"/>
</clipPath>
</defs>
</svg>
