<svg width="78" height="84" viewBox="0 0 78 84" fill="none" xmlns="http://www.w3.org/2000/svg">
<g clip-path="url(#clip0_8_342)">
<path d="M55.7804 37.2182C55.5531 37.064 55.2431 37.1236 55.088 37.3504C55.0462 37.4116 54.0429 38.8479 52.2003 38.8479C50.3578 38.8479 49.3545 37.4116 49.3137 37.3521C49.1302 37.0613 48.6685 37.0616 48.4852 37.3525C48.4752 37.3674 47.4604 38.8479 45.6014 38.8479C44.0431 38.8479 43.0853 37.8209 42.8021 37.4678V29.735H55.5009C55.7766 29.735 56 29.5116 56 29.2359C56 28.9603 55.7766 28.7369 55.5009 28.7369H51.4879V25.0998C51.4879 21.8002 48.8353 19.0902 45.5749 19.0587C43.9709 19.0425 42.4582 19.6576 41.3161 20.7887C40.7631 21.3363 40.3316 21.9724 40.0323 22.6643C39.1099 20.5636 37.0354 19.082 34.6297 19.0587C34.6099 19.0585 34.5901 19.0584 34.5703 19.0584C32.9882 19.0584 31.4989 19.6715 30.3708 20.7887C29.2285 21.92 28.5993 23.4263 28.5993 25.03V28.737H22.5368C22.2612 28.737 22.0378 28.9604 22.0378 29.236C22.0378 29.5117 22.2612 29.7351 22.5368 29.7351H28.5993V31.7057C28.5993 31.9814 28.8227 32.2048 29.0983 32.2048C29.374 32.2048 29.5974 31.9814 29.5974 31.7057V25.03C29.5974 23.6947 30.1215 22.4403 31.0732 21.4978C32.0246 20.5556 33.2832 20.0408 34.6202 20.0567C37.3354 20.0829 39.5446 22.3453 39.5446 25.0998V28.7369H38.2832V25.03C38.2832 23.0179 36.6468 21.3529 34.6355 21.3184C34.6142 21.3181 34.5933 21.3179 34.5721 21.3179C33.6089 21.3179 32.6963 21.6946 31.9962 22.3828C31.2733 23.0934 30.8588 24.079 30.8588 25.087V38.4806C30.1935 38.1465 29.7671 37.6749 29.5973 37.4621V33.7018C29.5973 33.4261 29.3739 33.2027 29.0983 33.2027C28.8226 33.2027 28.5992 33.4261 28.5992 33.7018V37.4671C28.315 37.8215 27.3573 38.8479 25.7997 38.8479C23.9571 38.8479 22.9538 37.4116 22.9131 37.3521C22.7593 37.1234 22.4492 37.0627 22.2205 37.2164C21.9918 37.3701 21.931 37.6802 22.0848 37.9089C22.138 37.988 23.4146 39.8459 25.7996 39.8459C27.4302 39.8459 28.5427 38.9776 29.1003 38.4029C29.6579 38.9776 30.7704 39.8459 32.4009 39.8459C34.0311 39.8459 35.1423 38.9781 35.6995 38.4032C36.2572 38.9779 37.3696 39.8459 38.9998 39.8459C40.6304 39.8459 41.7428 38.9776 42.3004 38.4029C42.858 38.9776 43.9705 39.8459 45.6011 39.8459C47.2313 39.8459 48.3425 38.9781 48.8996 38.4032C49.4574 38.9779 50.5697 39.8459 52.1999 39.8459C54.5851 39.8459 55.8616 37.988 55.9147 37.9089C56.0684 37.6808 56.0079 37.3725 55.7804 37.2182ZM31.8569 33.2028H39.5446V34.6H31.8569V33.2028ZM39.5446 32.2047H31.8569V29.735H39.5446V32.2047ZM32.696 23.0946C33.219 22.5804 33.9015 22.3041 34.6184 22.3164C36.0889 22.3416 37.2852 23.5589 37.2852 25.0301V28.737H31.8569V25.0871C31.8569 24.3449 32.1627 23.6187 32.696 23.0946ZM36.1134 37.3521C35.9301 37.0629 35.4707 37.0627 35.286 37.3509C35.2443 37.412 34.2433 38.8479 32.4011 38.8479C32.2105 38.8479 32.0294 38.8318 31.8569 38.8042V35.598H39.5446V38.8041C39.372 38.8317 39.1908 38.8479 39 38.8479C37.1575 38.8479 36.1541 37.4116 36.1134 37.3521ZM40.5426 38.4804V25.03C40.5426 23.6947 41.0667 22.4403 42.0184 21.4978C42.9698 20.5556 44.2285 20.0408 45.5653 20.0567C48.2806 20.0829 50.4898 22.3453 50.4898 25.0998V28.7369H49.2284V27.6276C49.2284 27.3519 49.005 27.1285 48.7294 27.1285C48.4537 27.1285 48.2303 27.3519 48.2303 27.6276V28.7369H42.802V25.087C42.802 24.3449 43.1079 23.6186 43.6411 23.0944C44.1641 22.5803 44.8454 22.304 45.5635 22.3162C47.034 22.3415 48.2303 23.5588 48.2303 25.03V25.6315C48.2303 25.9071 48.4537 26.1305 48.7294 26.1305C49.005 26.1305 49.2284 25.9071 49.2284 25.6315V25.03C49.2284 23.0179 47.592 21.3528 45.5807 21.3183C45.5595 21.318 45.5385 21.3178 45.5173 21.3178C44.5541 21.3178 43.6416 21.6945 42.9415 22.3827C42.2186 23.0933 41.804 24.079 41.804 25.087V37.4614C41.6337 37.6751 41.2073 38.1465 40.5426 38.4804Z" fill="#616161"/>
<path d="M35.7017 44.9437C33.8591 44.9437 32.8559 43.5074 32.8151 43.4479C32.6319 43.1588 32.1728 43.1585 31.9879 43.4463C31.9462 43.5074 30.9428 44.9437 29.1003 44.9437C27.2578 44.9437 26.2545 43.5074 26.2137 43.4479C26.0599 43.2192 25.7499 43.1585 25.5212 43.3123C25.2925 43.466 25.2317 43.7761 25.3855 44.0048C25.4386 44.0838 26.7152 45.9418 29.1003 45.9418C30.7309 45.9418 31.8433 45.0734 32.4009 44.4988C32.9585 45.0734 34.071 45.9418 35.7016 45.9418C35.9773 45.9418 36.2007 45.7184 36.2007 45.4427C36.2007 45.1671 35.9774 44.9437 35.7017 44.9437Z" fill="#616161"/>
<path d="M52.4792 43.314C52.2516 43.16 51.9418 43.2199 51.7868 43.4469C51.7451 43.508 50.7441 44.9439 48.9019 44.9439C47.0593 44.9439 46.0561 43.5076 46.0153 43.4481C45.8319 43.1575 45.3705 43.1575 45.1871 43.4481C45.177 43.463 44.1598 44.9439 42.3004 44.9439C40.4579 44.9439 39.4546 43.5076 39.4138 43.4481C39.2305 43.1589 38.7711 43.1587 38.5864 43.4469C38.5824 43.4526 38.1797 44.0352 37.4369 44.4688C37.1989 44.6078 37.1185 44.9134 37.2575 45.1514C37.3965 45.3893 37.7019 45.4696 37.9401 45.3308C38.3985 45.0632 38.753 44.7522 38.9994 44.4985C39.5569 45.0732 40.6694 45.942 42.3004 45.942C43.9311 45.942 45.0435 45.0736 45.6011 44.4989C46.1587 45.0736 47.2712 45.942 48.9018 45.942C51.2872 45.942 52.5613 44.0836 52.6144 44.0046C52.7677 43.7762 52.7068 43.468 52.4792 43.314Z" fill="#616161"/>
</g>
<path d="M3.96 59.348L1.14 66.212C1.108 66.308 1.052 66.384 0.972 66.44C0.892 66.496 0.808 66.524 0.72 66.524C0.568 66.524 0.456 66.484 0.384 66.404C0.312 66.324 0.276 66.228 0.276 66.116C0.268 66.06 0.276 66 0.3 65.936L3.408 58.376C3.448 58.264 3.508 58.184 3.588 58.136C3.676 58.08 3.772 58.056 3.876 58.064C3.98 58.064 4.072 58.092 4.152 58.148C4.24 58.204 4.3 58.28 4.332 58.376L7.428 65.864C7.452 65.928 7.464 65.992 7.464 66.056C7.464 66.2 7.416 66.316 7.32 66.404C7.224 66.484 7.116 66.524 6.996 66.524C6.9 66.524 6.812 66.496 6.732 66.44C6.652 66.384 6.592 66.304 6.552 66.2L3.696 59.336L3.96 59.348ZM1.74 64.256L2.148 63.32H5.712L5.892 64.256H1.74ZM11.5747 60.2C12.1187 60.2 12.5587 60.34 12.8947 60.62C13.2387 60.892 13.4667 61.28 13.5787 61.784H13.3987L13.4827 61.568C13.5787 61.344 13.7427 61.128 13.9747 60.92C14.2067 60.712 14.4747 60.54 14.7787 60.404C15.0827 60.268 15.3987 60.2 15.7267 60.2C16.2547 60.2 16.6707 60.316 16.9747 60.548C17.2787 60.772 17.4947 61.076 17.6227 61.46C17.7587 61.836 17.8267 62.26 17.8267 62.732V66.008C17.8267 66.144 17.7787 66.26 17.6827 66.356C17.5947 66.452 17.4827 66.5 17.3467 66.5C17.2027 66.5 17.0867 66.452 16.9987 66.356C16.9107 66.26 16.8667 66.144 16.8667 66.008V62.756C16.8667 62.444 16.8187 62.164 16.7227 61.916C16.6347 61.66 16.4867 61.46 16.2787 61.316C16.0787 61.164 15.8027 61.088 15.4507 61.088C15.1227 61.088 14.8227 61.164 14.5507 61.316C14.2787 61.46 14.0627 61.66 13.9027 61.916C13.7427 62.164 13.6627 62.444 13.6627 62.756V66.008C13.6627 66.144 13.6187 66.26 13.5307 66.356C13.4427 66.452 13.3267 66.5 13.1827 66.5C13.0467 66.5 12.9307 66.452 12.8347 66.356C12.7467 66.26 12.7027 66.144 12.7027 66.008V62.72C12.7027 62.416 12.6587 62.144 12.5707 61.904C12.4907 61.656 12.3507 61.46 12.1507 61.316C11.9507 61.164 11.6747 61.088 11.3227 61.088C11.0027 61.088 10.7107 61.164 10.4467 61.316C10.1827 61.46 9.97066 61.656 9.81066 61.904C9.65066 62.144 9.57066 62.416 9.57066 62.72V66.008C9.57066 66.144 9.52266 66.26 9.42666 66.356C9.33866 66.452 9.22666 66.5 9.09066 66.5C8.95466 66.5 8.83866 66.452 8.74266 66.356C8.65466 66.26 8.61066 66.144 8.61066 66.008V60.776C8.61066 60.64 8.65466 60.528 8.74266 60.44C8.83866 60.344 8.95466 60.296 9.09066 60.296C9.23466 60.296 9.35066 60.344 9.43866 60.44C9.52666 60.528 9.57066 60.64 9.57066 60.776V61.688L9.30666 61.976C9.33866 61.768 9.41866 61.56 9.54666 61.352C9.68266 61.144 9.85466 60.952 10.0627 60.776C10.2707 60.6 10.5027 60.46 10.7587 60.356C11.0147 60.252 11.2867 60.2 11.5747 60.2ZM24.7148 60.236C24.8508 60.236 24.9628 60.284 25.0508 60.38C25.1468 60.468 25.1948 60.58 25.1948 60.716V66.008C25.1948 66.144 25.1468 66.26 25.0508 66.356C24.9628 66.452 24.8508 66.5 24.7148 66.5C24.5708 66.5 24.4548 66.452 24.3668 66.356C24.2788 66.26 24.2348 66.144 24.2348 66.008V64.868L24.4628 64.844C24.4628 65.02 24.4028 65.212 24.2828 65.42C24.1628 65.628 23.9988 65.824 23.7908 66.008C23.5828 66.184 23.3348 66.332 23.0468 66.452C22.7668 66.564 22.4628 66.62 22.1348 66.62C21.5908 66.62 21.1028 66.48 20.6708 66.2C20.2388 65.912 19.8948 65.524 19.6388 65.036C19.3908 64.548 19.2668 63.992 19.2668 63.368C19.2668 62.736 19.3908 62.18 19.6388 61.7C19.8948 61.212 20.2388 60.832 20.6708 60.56C21.1028 60.28 21.5828 60.14 22.1108 60.14C22.4548 60.14 22.7748 60.196 23.0708 60.308C23.3668 60.42 23.6228 60.572 23.8388 60.764C24.0628 60.956 24.2348 61.168 24.3548 61.4C24.4828 61.632 24.5468 61.864 24.5468 62.096L24.2348 62.024V60.716C24.2348 60.58 24.2788 60.468 24.3668 60.38C24.4548 60.284 24.5708 60.236 24.7148 60.236ZM22.2428 65.732C22.6428 65.732 22.9948 65.628 23.2988 65.42C23.6108 65.212 23.8508 64.932 24.0188 64.58C24.1948 64.22 24.2828 63.816 24.2828 63.368C24.2828 62.928 24.1948 62.532 24.0188 62.18C23.8508 61.82 23.6108 61.54 23.2988 61.34C22.9948 61.132 22.6428 61.028 22.2428 61.028C21.8508 61.028 21.4988 61.128 21.1868 61.328C20.8828 61.528 20.6428 61.804 20.4668 62.156C20.2908 62.508 20.2028 62.912 20.2028 63.368C20.2028 63.816 20.2868 64.22 20.4548 64.58C20.6308 64.932 20.8708 65.212 21.1748 65.42C21.4868 65.628 21.8428 65.732 22.2428 65.732ZM30.9099 65.612C31.0379 65.612 31.1459 65.656 31.2339 65.744C31.3219 65.824 31.3659 65.928 31.3659 66.056C31.3659 66.176 31.3219 66.28 31.2339 66.368C31.1459 66.456 31.0379 66.5 30.9099 66.5H27.0219C26.8779 66.5 26.7659 66.448 26.6859 66.344C26.6059 66.24 26.5659 66.144 26.5659 66.056C26.5739 65.976 26.5859 65.908 26.6019 65.852C26.6179 65.796 26.6539 65.732 26.7099 65.66L30.1419 61.016L30.1539 61.148H27.2499C27.1219 61.148 27.0139 61.104 26.9259 61.016C26.8379 60.928 26.7939 60.82 26.7939 60.692C26.7939 60.572 26.8379 60.472 26.9259 60.392C27.0139 60.304 27.1219 60.26 27.2499 60.26H30.9339C31.0619 60.26 31.1659 60.308 31.2459 60.404C31.3339 60.492 31.3779 60.604 31.3779 60.74C31.3699 60.796 31.3579 60.852 31.3419 60.908C31.3259 60.956 31.2939 61.016 31.2459 61.088L27.8499 65.672L27.7659 65.612H30.9099ZM33.6753 66.008C33.6753 66.144 33.6273 66.26 33.5313 66.356C33.4433 66.452 33.3313 66.5 33.1953 66.5C33.0513 66.5 32.9353 66.452 32.8473 66.356C32.7593 66.26 32.7153 66.144 32.7153 66.008V60.68C32.7153 60.544 32.7593 60.432 32.8473 60.344C32.9433 60.248 33.0593 60.2 33.1953 60.2C33.3313 60.2 33.4433 60.248 33.5313 60.344C33.6273 60.432 33.6753 60.544 33.6753 60.68V66.008ZM33.1953 59.396C32.9953 59.396 32.8473 59.356 32.7513 59.276C32.6553 59.196 32.6073 59.072 32.6073 58.904V58.736C32.6073 58.568 32.6593 58.444 32.7633 58.364C32.8673 58.284 33.0153 58.244 33.2073 58.244C33.3993 58.244 33.5433 58.284 33.6393 58.364C33.7353 58.444 33.7833 58.568 33.7833 58.736V58.904C33.7833 59.072 33.7313 59.196 33.6273 59.276C33.5313 59.356 33.3873 59.396 33.1953 59.396ZM38.4837 60.14C39.0277 60.14 39.4557 60.252 39.7677 60.476C40.0797 60.7 40.2997 61 40.4277 61.376C40.5637 61.752 40.6317 62.172 40.6317 62.636V66.008C40.6317 66.144 40.5837 66.26 40.4877 66.356C40.3997 66.452 40.2877 66.5 40.1517 66.5C40.0157 66.5 39.8997 66.452 39.8037 66.356C39.7157 66.26 39.6717 66.144 39.6717 66.008V62.66C39.6717 62.356 39.6237 62.084 39.5277 61.844C39.4397 61.596 39.2877 61.4 39.0717 61.256C38.8637 61.104 38.5757 61.028 38.2077 61.028C37.8717 61.028 37.5637 61.104 37.2837 61.256C37.0037 61.4 36.7797 61.596 36.6117 61.844C36.4437 62.084 36.3597 62.356 36.3597 62.66V66.008C36.3597 66.144 36.3117 66.26 36.2157 66.356C36.1277 66.452 36.0157 66.5 35.8797 66.5C35.7437 66.5 35.6277 66.452 35.5317 66.356C35.4437 66.26 35.3997 66.144 35.3997 66.008V60.776C35.3997 60.64 35.4437 60.528 35.5317 60.44C35.6277 60.344 35.7437 60.296 35.8797 60.296C36.0237 60.296 36.1397 60.344 36.2277 60.44C36.3157 60.528 36.3597 60.64 36.3597 60.776V61.628L36.1197 61.892C36.1597 61.684 36.2517 61.476 36.3957 61.268C36.5397 61.052 36.7197 60.86 36.9357 60.692C37.1517 60.524 37.3917 60.392 37.6557 60.296C37.9197 60.192 38.1957 60.14 38.4837 60.14ZM45.0115 60.14C45.3555 60.14 45.6755 60.2 45.9715 60.32C46.2675 60.432 46.5235 60.58 46.7395 60.764C46.9635 60.948 47.1355 61.14 47.2555 61.34C47.3835 61.54 47.4475 61.728 47.4475 61.904L47.2195 61.76V60.716C47.2195 60.58 47.2635 60.468 47.3515 60.38C47.4395 60.284 47.5555 60.236 47.6995 60.236C47.8355 60.236 47.9475 60.284 48.0355 60.38C48.1315 60.468 48.1795 60.58 48.1795 60.716V65.972C48.1795 66.628 48.0395 67.172 47.7595 67.604C47.4875 68.036 47.1195 68.36 46.6555 68.576C46.1915 68.792 45.6715 68.9 45.0955 68.9C44.8555 68.9 44.5915 68.868 44.3035 68.804C44.0155 68.74 43.7595 68.66 43.5355 68.564C43.3115 68.476 43.1675 68.384 43.1035 68.288C42.9835 68.208 42.9075 68.116 42.8755 68.012C42.8515 67.916 42.8715 67.824 42.9355 67.736C43.0075 67.624 43.0995 67.568 43.2115 67.568C43.3315 67.568 43.4795 67.604 43.6555 67.676C43.7275 67.7 43.8395 67.74 43.9915 67.796C44.1515 67.852 44.3275 67.9 44.5195 67.94C44.7195 67.988 44.9155 68.012 45.1075 68.012C45.7875 68.012 46.3075 67.832 46.6675 67.472C47.0355 67.12 47.2195 66.652 47.2195 66.068V64.952L47.3515 65.012C47.3035 65.236 47.2035 65.444 47.0515 65.636C46.9075 65.828 46.7275 66 46.5115 66.152C46.3035 66.296 46.0715 66.412 45.8155 66.5C45.5595 66.58 45.2995 66.62 45.0355 66.62C44.4755 66.62 43.9715 66.48 43.5235 66.2C43.0755 65.92 42.7195 65.536 42.4555 65.048C42.1995 64.56 42.0715 64.004 42.0715 63.38C42.0715 62.748 42.1995 62.188 42.4555 61.7C42.7195 61.212 43.0715 60.832 43.5115 60.56C43.9595 60.28 44.4595 60.14 45.0115 60.14ZM45.1315 61.028C44.7235 61.028 44.3555 61.132 44.0275 61.34C43.7075 61.54 43.4555 61.816 43.2715 62.168C43.0955 62.52 43.0075 62.924 43.0075 63.38C43.0075 63.82 43.0955 64.22 43.2715 64.58C43.4555 64.932 43.7075 65.212 44.0275 65.42C44.3555 65.628 44.7235 65.732 45.1315 65.732C45.5475 65.732 45.9155 65.632 46.2355 65.432C46.5555 65.224 46.8075 64.944 46.9915 64.592C47.1755 64.24 47.2675 63.836 47.2675 63.38C47.2675 62.916 47.1755 62.508 46.9915 62.156C46.8075 61.804 46.5555 61.528 46.2355 61.328C45.9155 61.128 45.5475 61.028 45.1315 61.028ZM56.3191 60.2C56.8631 60.2 57.3511 60.336 57.7831 60.608C58.2151 60.88 58.5551 61.256 58.8031 61.736C59.0591 62.216 59.1871 62.768 59.1871 63.392C59.1871 64.008 59.0591 64.56 58.8031 65.048C58.5551 65.528 58.2151 65.908 57.7831 66.188C57.3591 66.46 56.8791 66.596 56.3431 66.596C56.0471 66.596 55.7671 66.552 55.5031 66.464C55.2471 66.368 55.0111 66.248 54.7951 66.104C54.5871 65.952 54.4111 65.784 54.2671 65.6C54.1231 65.408 54.0191 65.22 53.9551 65.036L54.2191 64.868V68.408C54.2191 68.544 54.1751 68.66 54.0871 68.756C53.9991 68.852 53.8831 68.9 53.7391 68.9C53.6031 68.9 53.4871 68.852 53.3911 68.756C53.3031 68.668 53.2591 68.552 53.2591 68.408V60.74C53.2591 60.604 53.3031 60.492 53.3911 60.404C53.4871 60.308 53.6031 60.26 53.7391 60.26C53.8831 60.26 53.9991 60.308 54.0871 60.404C54.1751 60.492 54.2191 60.604 54.2191 60.74V61.808L54.0391 61.712C54.0951 61.512 54.1911 61.32 54.3271 61.136C54.4711 60.952 54.6431 60.792 54.8431 60.656C55.0511 60.512 55.2791 60.4 55.5271 60.32C55.7831 60.24 56.0471 60.2 56.3191 60.2ZM56.2111 61.088C55.8111 61.088 55.4551 61.188 55.1431 61.388C54.8391 61.588 54.5991 61.86 54.4231 62.204C54.2551 62.548 54.1711 62.944 54.1711 63.392C54.1711 63.832 54.2551 64.228 54.4231 64.58C54.5991 64.932 54.8391 65.208 55.1431 65.408C55.4551 65.608 55.8111 65.708 56.2111 65.708C56.6111 65.708 56.9631 65.608 57.2671 65.408C57.5711 65.208 57.8111 64.932 57.9871 64.58C58.1631 64.228 58.2511 63.832 58.2511 63.392C58.2511 62.944 58.1631 62.548 57.9871 62.204C57.8111 61.86 57.5711 61.588 57.2671 61.388C56.9631 61.188 56.6111 61.088 56.2111 61.088ZM66.5222 63.38C66.5222 64.004 66.3822 64.56 66.1022 65.048C65.8302 65.536 65.4582 65.92 64.9862 66.2C64.5222 66.48 63.9982 66.62 63.4142 66.62C62.8302 66.62 62.3022 66.48 61.8302 66.2C61.3582 65.92 60.9822 65.536 60.7022 65.048C60.4302 64.56 60.2942 64.004 60.2942 63.38C60.2942 62.756 60.4302 62.2 60.7022 61.712C60.9822 61.224 61.3582 60.84 61.8302 60.56C62.3022 60.28 62.8302 60.14 63.4142 60.14C63.9982 60.14 64.5222 60.28 64.9862 60.56C65.4582 60.84 65.8302 61.224 66.1022 61.712C66.3822 62.2 66.5222 62.756 66.5222 63.38ZM65.5622 63.38C65.5622 62.916 65.4662 62.508 65.2742 62.156C65.0902 61.804 64.8342 61.528 64.5062 61.328C64.1862 61.128 63.8222 61.028 63.4142 61.028C63.0062 61.028 62.6382 61.128 62.3102 61.328C61.9902 61.528 61.7342 61.804 61.5422 62.156C61.3502 62.508 61.2542 62.916 61.2542 63.38C61.2542 63.836 61.3502 64.24 61.5422 64.592C61.7342 64.944 61.9902 65.224 62.3102 65.432C62.6382 65.632 63.0062 65.732 63.4142 65.732C63.8222 65.732 64.1862 65.632 64.5062 65.432C64.8342 65.224 65.0902 64.944 65.2742 64.592C65.4662 64.24 65.5622 63.836 65.5622 63.38ZM73.8581 63.38C73.8581 64.004 73.7181 64.56 73.4381 65.048C73.1661 65.536 72.7941 65.92 72.3221 66.2C71.8581 66.48 71.3341 66.62 70.7501 66.62C70.1661 66.62 69.6381 66.48 69.1661 66.2C68.6941 65.92 68.3181 65.536 68.0381 65.048C67.7661 64.56 67.6301 64.004 67.6301 63.38C67.6301 62.756 67.7661 62.2 68.0381 61.712C68.3181 61.224 68.6941 60.84 69.1661 60.56C69.6381 60.28 70.1661 60.14 70.7501 60.14C71.3341 60.14 71.8581 60.28 72.3221 60.56C72.7941 60.84 73.1661 61.224 73.4381 61.712C73.7181 62.2 73.8581 62.756 73.8581 63.38ZM72.8981 63.38C72.8981 62.916 72.8021 62.508 72.6101 62.156C72.4261 61.804 72.1701 61.528 71.8421 61.328C71.5221 61.128 71.1581 61.028 70.7501 61.028C70.3421 61.028 69.9741 61.128 69.6461 61.328C69.3261 61.528 69.0701 61.804 68.8781 62.156C68.6861 62.508 68.5901 62.916 68.5901 63.38C68.5901 63.836 68.6861 64.24 68.8781 64.592C69.0701 64.944 69.3261 65.224 69.6461 65.432C69.9741 65.632 70.3421 65.732 70.7501 65.732C71.1581 65.732 71.5221 65.632 71.8421 65.432C72.1701 65.224 72.4261 64.944 72.6101 64.592C72.8021 64.24 72.8981 63.836 72.8981 63.38ZM76.3581 66.008C76.3581 66.144 76.3101 66.26 76.2141 66.356C76.1181 66.452 76.0021 66.5 75.8661 66.5C75.7301 66.5 75.6181 66.452 75.5301 66.356C75.4421 66.26 75.3981 66.144 75.3981 66.008V58.1C75.3981 57.964 75.4421 57.852 75.5301 57.764C75.6261 57.668 75.7421 57.62 75.8781 57.62C76.0221 57.62 76.1381 57.668 76.2261 57.764C76.3141 57.852 76.3581 57.964 76.3581 58.1V66.008Z" fill="#616161"/>
<defs>
<clipPath id="clip0_8_342">
<rect width="34" height="34" fill="white" transform="translate(22 15.5)"/>
</clipPath>
</defs>
</svg>
