<svg width="34" height="84" viewBox="0 0 34 84" fill="none" xmlns="http://www.w3.org/2000/svg">
<mask id="path-1-inside-1_5_278" fill="white">
<path d="M0 -1.5H34V86.5H0V-1.5Z"/>
</mask>
<path d="M34 81.5H0V91.5H34V81.5Z" fill="#0F4E3D" mask="url(#path-1-inside-1_5_278)"/>
<path d="M30.0334 31.3666H28.9V26.8333C28.9 26.5613 28.7074 26.3289 28.4467 26.2779L23.2334 25.2353V24.2153L24.5877 24.6289C24.6444 24.6459 24.701 24.6516 24.752 24.6516C24.9957 24.6516 25.2224 24.4929 25.296 24.2493C25.3867 23.9489 25.2167 23.6316 24.922 23.5409L22.9217 22.9289C22.8934 22.9119 22.865 22.8949 22.8367 22.8893L20.0034 22.0393L9.80336 18.9226C9.50302 18.8319 9.18569 19.0019 9.09502 19.2966C9.00436 19.5969 9.17436 19.9143 9.46902 20.0049L10.7667 20.4073V25.2353L5.55336 26.2779C5.29269 26.3289 5.10002 26.5613 5.10002 26.8333V31.3666H3.96669C3.65502 31.3666 3.40002 31.6216 3.40002 31.9333V45.5333C3.40002 45.845 3.65502 46.1 3.96669 46.1H14.7334H19.2667H30.0334C30.345 46.1 30.6 45.845 30.6 45.5333V31.9333C30.6 31.6216 30.345 31.3666 30.0334 31.3666ZM27.7667 27.2979V31.3666H23.2334V26.3913L27.7667 27.2979ZM22.1 23.8696V25.6999V31.3666H11.9V25.6999V20.7926L19.669 23.1216L22.1 23.8696ZM6.23336 27.2979L10.7667 26.3913V31.3666H6.23336V27.2979ZM15.3 44.9666V39.3H18.7V44.9666H15.3ZM29.4667 44.9666H19.8334V39.3H20.9667C21.2784 39.3 21.5334 39.045 21.5334 38.7333C21.5334 38.4216 21.2784 38.1666 20.9667 38.1666H19.2667H14.7334H13.0334C12.7217 38.1666 12.4667 38.4216 12.4667 38.7333C12.4667 39.045 12.7217 39.3 13.0334 39.3H14.1667V44.9666H4.53336V32.4999H5.66669H11.3334H22.6667H28.3334H29.4667V44.9666Z" fill="#222222"/>
<path d="M26.6333 34.7666H23.2333C22.9216 34.7666 22.6666 35.0216 22.6666 35.3333V38.7333C22.6666 39.0449 22.9216 39.2999 23.2333 39.2999H26.6333C26.945 39.2999 27.2 39.0449 27.2 38.7333V35.3333C27.2 35.0216 26.945 34.7666 26.6333 34.7666ZM26.0666 38.1666H23.8V35.8999H26.0666V38.1666Z" fill="#222222"/>
<path d="M10.7667 34.7666H7.36672C7.05505 34.7666 6.80005 35.0216 6.80005 35.3333V38.7333C6.80005 39.0449 7.05505 39.2999 7.36672 39.2999H10.7667C11.0784 39.2999 11.3334 39.0449 11.3334 38.7333V35.3333C11.3334 35.0216 11.0784 34.7666 10.7667 34.7666ZM10.2 38.1666H7.93338V35.8999H10.2V38.1666Z" fill="#222222"/>
<path d="M14.1666 29.6669H19.8333C20.145 29.6669 20.4 29.4119 20.4 29.1002V25.7002C20.4 25.3885 20.145 25.1335 19.8333 25.1335H14.1666C13.855 25.1335 13.6 25.3885 13.6 25.7002V29.1002C13.6 29.4119 13.855 29.6669 14.1666 29.6669ZM19.2666 28.5335H17.5666V26.2669H19.2666V28.5335ZM14.7333 26.2669H16.4333V28.5335H14.7333V26.2669Z" fill="#222222"/>
<path d="M12.152 58.088C12.288 58.088 12.404 58.132 12.5 58.22C12.596 58.3 12.644 58.408 12.644 58.544C12.644 58.608 12.628 58.68 12.596 58.76L9.464 66.188C9.416 66.292 9.348 66.372 9.26 66.428C9.18 66.476 9.092 66.5 8.996 66.5C8.908 66.492 8.824 66.464 8.744 66.416C8.664 66.36 8.604 66.284 8.564 66.188L5.444 58.772C5.428 58.74 5.416 58.708 5.408 58.676C5.4 58.636 5.396 58.596 5.396 58.556C5.396 58.404 5.448 58.288 5.552 58.208C5.664 58.12 5.772 58.076 5.876 58.076C6.092 58.076 6.248 58.188 6.344 58.412L9.212 65.252H8.936L11.708 58.388C11.804 58.188 11.952 58.088 12.152 58.088ZM14.8393 66.008C14.8393 66.144 14.7913 66.26 14.6953 66.356C14.6073 66.452 14.4953 66.5 14.3593 66.5C14.2153 66.5 14.0993 66.452 14.0113 66.356C13.9233 66.26 13.8793 66.144 13.8793 66.008V60.68C13.8793 60.544 13.9233 60.432 14.0113 60.344C14.1073 60.248 14.2233 60.2 14.3593 60.2C14.4953 60.2 14.6073 60.248 14.6953 60.344C14.7913 60.432 14.8393 60.544 14.8393 60.68V66.008ZM14.3593 59.396C14.1593 59.396 14.0113 59.356 13.9153 59.276C13.8193 59.196 13.7713 59.072 13.7713 58.904V58.736C13.7713 58.568 13.8233 58.444 13.9273 58.364C14.0313 58.284 14.1793 58.244 14.3713 58.244C14.5633 58.244 14.7073 58.284 14.8033 58.364C14.8993 58.444 14.9473 58.568 14.9473 58.736V58.904C14.9473 59.072 14.8953 59.196 14.7913 59.276C14.6953 59.356 14.5513 59.396 14.3593 59.396ZM17.6198 66.008C17.6198 66.144 17.5718 66.26 17.4758 66.356C17.3798 66.452 17.2638 66.5 17.1278 66.5C16.9918 66.5 16.8798 66.452 16.7918 66.356C16.7038 66.26 16.6598 66.144 16.6598 66.008V58.1C16.6598 57.964 16.7038 57.852 16.7918 57.764C16.8878 57.668 17.0038 57.62 17.1398 57.62C17.2838 57.62 17.3998 57.668 17.4878 57.764C17.5758 57.852 17.6198 57.964 17.6198 58.1V66.008ZM20.5378 66.008C20.5378 66.144 20.4898 66.26 20.3938 66.356C20.2978 66.452 20.1818 66.5 20.0458 66.5C19.9098 66.5 19.7978 66.452 19.7098 66.356C19.6218 66.26 19.5778 66.144 19.5778 66.008V58.1C19.5778 57.964 19.6218 57.852 19.7098 57.764C19.8058 57.668 19.9218 57.62 20.0578 57.62C20.2018 57.62 20.3178 57.668 20.4058 57.764C20.4938 57.852 20.5378 57.964 20.5378 58.1V66.008ZM27.5117 60.236C27.6477 60.236 27.7597 60.284 27.8477 60.38C27.9437 60.468 27.9917 60.58 27.9917 60.716V66.008C27.9917 66.144 27.9437 66.26 27.8477 66.356C27.7597 66.452 27.6477 66.5 27.5117 66.5C27.3677 66.5 27.2517 66.452 27.1637 66.356C27.0757 66.26 27.0317 66.144 27.0317 66.008V64.868L27.2597 64.844C27.2597 65.02 27.1997 65.212 27.0797 65.42C26.9597 65.628 26.7957 65.824 26.5877 66.008C26.3797 66.184 26.1317 66.332 25.8437 66.452C25.5637 66.564 25.2597 66.62 24.9317 66.62C24.3877 66.62 23.8997 66.48 23.4677 66.2C23.0357 65.912 22.6917 65.524 22.4357 65.036C22.1877 64.548 22.0637 63.992 22.0637 63.368C22.0637 62.736 22.1877 62.18 22.4357 61.7C22.6917 61.212 23.0357 60.832 23.4677 60.56C23.8997 60.28 24.3797 60.14 24.9077 60.14C25.2517 60.14 25.5717 60.196 25.8677 60.308C26.1637 60.42 26.4197 60.572 26.6357 60.764C26.8597 60.956 27.0317 61.168 27.1517 61.4C27.2797 61.632 27.3437 61.864 27.3437 62.096L27.0317 62.024V60.716C27.0317 60.58 27.0757 60.468 27.1637 60.38C27.2517 60.284 27.3677 60.236 27.5117 60.236ZM25.0397 65.732C25.4397 65.732 25.7917 65.628 26.0957 65.42C26.4077 65.212 26.6477 64.932 26.8157 64.58C26.9917 64.22 27.0797 63.816 27.0797 63.368C27.0797 62.928 26.9917 62.532 26.8157 62.18C26.6477 61.82 26.4077 61.54 26.0957 61.34C25.7917 61.132 25.4397 61.028 25.0397 61.028C24.6477 61.028 24.2957 61.128 23.9837 61.328C23.6797 61.528 23.4397 61.804 23.2637 62.156C23.0877 62.508 22.9997 62.912 22.9997 63.368C22.9997 63.816 23.0837 64.22 23.2517 64.58C23.4277 64.932 23.6677 65.212 23.9717 65.42C24.2837 65.628 24.6397 65.732 25.0397 65.732Z" fill="#222222"/>
</svg>
